<svg width="20" height="16" viewBox="0 0 20 16" fill="none" xmlns="http://www.w3.org/2000/svg">
<path d="M11.0572 1.05737C11.3072 0.807413 11.6463 0.666992 11.9998 0.666992C12.3534 0.666992 12.6925 0.807413 12.9425 1.05737L18.9425 7.05737C19.1925 7.30741 19.3329 7.64649 19.3329 8.00004C19.3329 8.35359 19.1925 8.69267 18.9425 8.94271L12.9425 14.9427C12.691 15.1856 12.3542 15.32 12.0046 15.3169C11.655 15.3139 11.3206 15.1737 11.0734 14.9265C10.8262 14.6793 10.686 14.3448 10.6829 13.9952C10.6799 13.6456 10.8143 13.3088 11.0572 13.0574L14.6665 9.33337H1.99984C1.64622 9.33337 1.30708 9.1929 1.05703 8.94285C0.80698 8.6928 0.666504 8.35366 0.666504 8.00004C0.666504 7.64642 0.80698 7.30728 1.05703 7.05723C1.30708 6.80718 1.64622 6.66671 1.99984 6.66671H14.6665L11.0572 2.94271C10.8072 2.69267 10.6668 2.35359 10.6668 2.00004C10.6668 1.64649 10.8072 1.30741 11.0572 1.05737Z" fill="#FFBF09"/>
</svg>
