<svg width="10" height="16" viewBox="0 0 10 16" fill="none" xmlns="http://www.w3.org/2000/svg">
<path d="M9.40075 6.61077H5.90186L6.67687 0.265632C6.67837 0.212397 6.66339 0.159999 6.63397 0.115609C6.60454 0.0712184 6.56212 0.0370067 6.5125 0.0176563C6.46289 -0.00169413 6.4085 -0.00523742 6.35679 0.00751146C6.30509 0.0202603 6.25858 0.0486782 6.22365 0.0888752L0.186703 8.70013C0.133055 8.77742 0.101531 8.8679 0.0955333 8.9618C0.0895358 9.0557 0.109292 9.14945 0.152671 9.23294C0.19605 9.31643 0.261404 9.3865 0.341682 9.43557C0.42196 9.48464 0.514114 9.51086 0.608201 9.5114H4.08896L3.32301 15.7296C3.32051 15.7833 3.33478 15.8363 3.36383 15.8815C3.39289 15.9266 3.43528 15.9616 3.48513 15.9815C3.53497 16.0015 3.58979 16.0054 3.64196 15.9927C3.69413 15.9801 3.74106 15.9515 3.77624 15.9109L9.82225 7.40844C9.87228 7.3313 9.90082 7.2422 9.90492 7.15035C9.90902 7.05849 9.88853 6.96721 9.84557 6.88591C9.80262 6.80462 9.73875 6.73626 9.66055 6.68789C9.58235 6.63953 9.49267 6.6129 9.40075 6.61077Z" fill="#FFBF09"/>
</svg>
