<svg width="29" height="33" viewBox="0 0 29 33" fill="none" xmlns="http://www.w3.org/2000/svg">
<path d="M26.6111 13.8084H16.9821L19.1149 1.51466C19.1191 1.41152 19.0778 1.31 18.9968 1.22399C18.9159 1.13799 18.7991 1.0717 18.6626 1.03421C18.526 0.996718 18.3764 0.989852 18.2341 1.01455C18.0918 1.03925 17.9638 1.09431 17.8676 1.1722L1.25379 17.8565C1.10615 18.0063 1.0194 18.1816 1.00289 18.3635C0.986387 18.5454 1.04076 18.7271 1.16014 18.8888C1.27952 19.0506 1.45937 19.1863 1.6803 19.2814C1.90123 19.3765 2.15484 19.4273 2.41377 19.4283H11.9929L9.88501 31.4762C9.87812 31.5801 9.91739 31.6829 9.99735 31.7704C10.0773 31.8578 10.194 31.9256 10.3311 31.9642C10.4683 32.0028 10.6192 32.0104 10.7628 31.9859C10.9063 31.9614 11.0355 31.906 11.1323 31.8274L27.7711 15.3539C27.9088 15.2044 27.9873 15.0318 27.9986 14.8538C28.0099 14.6758 27.9535 14.499 27.8353 14.3415C27.7171 14.184 27.5413 14.0515 27.3261 13.9578C27.1109 13.8641 26.8641 13.8125 26.6111 13.8084Z" stroke="#FFBF09" stroke-width="2" stroke-linecap="round" stroke-linejoin="round"/>
</svg>
