<svg width="24" height="24" viewBox="0 0 24 24" fill="none" xmlns="http://www.w3.org/2000/svg">
<path d="M8.99997 11.22L12.7778 14.9977M7.97485 20.9726C6.60801 22.3394 4 21.9977 2 21.9977C3.0251 19.9977 1.65827 17.3897 3.0251 16.0229C4.39194 14.656 6.60801 14.656 7.97485 16.0229C9.34168 17.3897 9.34168 19.6058 7.97485 20.9726ZM11.9216 15.9223L21.0587 6.05427C21.8635 5.18511 21.8375 3.83532 20.9999 2.99773C20.1624 2.16014 18.8126 2.13419 17.9434 2.93897L8.07534 12.0761C7.5654 12.5482 7.31043 12.7843 7.16173 13.0361C6.80514 13.6399 6.79079 14.3863 7.12391 15.0033C7.26283 15.2606 7.50853 15.5063 7.99995 15.9977C8.49136 16.4891 8.73707 16.7348 8.99438 16.8738C9.6114 17.2069 10.3578 17.1925 10.9616 16.8359C11.2134 16.6872 11.4494 16.4323 11.9216 15.9223Z" stroke="white" stroke-width="1.5" stroke-linecap="round" stroke-linejoin="round"/>
</svg>
