<svg width="24" height="24" viewBox="0 0 24 24" fill="none" xmlns="http://www.w3.org/2000/svg">
<path d="M13.0613 2.56919C12.6461 1.81027 11.355 1.81027 10.9398 2.56919L0.140315 22.2965C0.0431003 22.4733 -0.00509462 22.6715 0.000426207 22.8716C0.00594704 23.0718 0.0649953 23.2672 0.171818 23.4388C0.27864 23.6103 0.429593 23.7522 0.609969 23.8505C0.790344 23.9489 0.993989 24.0004 1.20106 24H22.8C23.0069 24.0004 23.2104 23.949 23.3907 23.8507C23.5709 23.7524 23.7218 23.6106 23.8285 23.4391C23.9352 23.2677 23.9941 23.0724 23.9996 22.8723C24.005 22.6723 23.9568 22.4743 23.8595 22.2976L13.0613 2.56919ZM13.2005 20.5187H10.8006V18.1979H13.2005V20.5187ZM10.8006 15.877V10.0748H13.2005L13.2017 15.877H10.8006Z" fill="#D92D20"/>
</svg>
