<svg width="25" height="24" viewBox="0 0 25 24" fill="none" xmlns="http://www.w3.org/2000/svg">
<path d="M21.0834 8.51104C21.9674 8.79549 22.5834 9.6392 22.5834 10.6082V14.8938C22.5834 16.0304 21.736 16.9943 20.6031 17.0867C20.2642 17.1144 19.9243 17.1386 19.5834 17.1592V20.25L16.5834 17.25C15.2296 17.25 13.889 17.1948 12.5636 17.0866C12.2653 17.0623 11.9868 16.9775 11.7383 16.8451M21.0834 8.51104C20.932 8.46232 20.7727 8.43 20.6073 8.41628C19.2806 8.30616 17.9385 8.25 16.5833 8.25C15.2282 8.25 13.8862 8.30616 12.5595 8.41627C11.4284 8.51015 10.5834 9.47323 10.5834 10.6082V14.8937C10.5834 15.731 11.0432 16.4746 11.7383 16.8451M21.0834 8.51104V6.63731C21.0834 5.01589 19.9316 3.61065 18.3237 3.40191C16.2812 3.13676 14.1984 3 12.0837 3C9.96871 3 7.8857 3.13678 5.84301 3.40199C4.2351 3.61074 3.08337 5.01598 3.08337 6.63738V12.8626C3.08337 14.484 4.23511 15.8893 5.84302 16.098C6.41998 16.1729 7.00016 16.2376 7.58337 16.2918V21L11.7383 16.8451" stroke="#999999" stroke-width="1.5" stroke-linecap="round" stroke-linejoin="round"/>
</svg>
