<svg width="20" height="20" viewBox="0 0 20 20" fill="none" xmlns="http://www.w3.org/2000/svg">
<path fill-rule="evenodd" clip-rule="evenodd" d="M10 20C15.5228 20 20 15.5228 20 10C20 4.47715 15.5228 0 10 0C4.47715 0 0 4.47715 0 10C0 15.5228 4.47715 20 10 20Z" fill="#006EFF"/>
<path fill-rule="evenodd" clip-rule="evenodd" d="M14.8775 5.79071C15.027 5.63401 15.1989 5.55566 15.3933 5.55566C15.5876 5.55566 15.7596 5.63401 15.9091 5.79071C16.0436 5.93173 16.1109 6.10801 16.1109 6.31955C16.1109 6.53109 16.0436 6.70737 15.9091 6.8484L8.75513 14.3933C8.74018 14.4089 8.72523 14.4246 8.71028 14.4403C8.69533 14.4559 8.68038 14.4716 8.66543 14.4873C8.53087 14.644 8.36268 14.7223 8.16084 14.7223C7.95901 14.7223 7.79081 14.644 7.65626 14.4873L4.09051 10.7736C3.95595 10.6326 3.88867 10.4563 3.88867 10.2448C3.88867 10.0332 3.95595 9.85695 4.09051 9.71592C4.24001 9.55922 4.41195 9.48088 4.60631 9.48088C4.80067 9.48088 4.9726 9.55922 5.12211 9.71592L8.14963 12.889L14.8775 5.79071Z" fill="white"/>
</svg>
