<svg width="36" height="36" viewBox="0 0 36 36" fill="none" xmlns="http://www.w3.org/2000/svg">
<g clip-path="url(#clip0_12_3151)">
<path d="M10 10C10.2652 10 10.5196 9.89464 10.7071 9.70711C10.8946 9.51957 11 9.26522 11 9V3C11 2.73478 10.8946 2.48043 10.7071 2.29289C10.5196 2.10536 10.2652 2 10 2C9.73478 2 9.48043 2.10536 9.29289 2.29289C9.10536 2.48043 9 2.73478 9 3V9C9 9.26522 9.10536 9.51957 9.29289 9.70711C9.48043 9.89464 9.73478 10 10 10Z" fill="#006EFF"/>
<path d="M26 10C26.2652 10 26.5196 9.89464 26.7071 9.70711C26.8946 9.51957 27 9.26522 27 9V3C27 2.73478 26.8946 2.48043 26.7071 2.29289C26.5196 2.10536 26.2652 2 26 2C25.7348 2 25.4804 2.10536 25.2929 2.29289C25.1054 2.48043 25 2.73478 25 3V9C25 9.26522 25.1054 9.51957 25.2929 9.70711C25.4804 9.89464 25.7348 10 26 10Z" fill="#006EFF"/>
<path d="M32.25 5.99999H28.25V8.99999C28.25 9.58347 28.0182 10.143 27.6056 10.5556C27.1931 10.9682 26.6335 11.2 26.05 11.2C25.4665 11.2 24.907 10.9682 24.4944 10.5556C24.0818 10.143 23.85 9.58347 23.85 8.99999V5.99999H12.2V8.99999C12.2 9.58347 11.9682 10.143 11.5556 10.5556C11.1431 10.9682 10.5835 11.2 10 11.2C9.41654 11.2 8.85696 10.9682 8.44438 10.5556C8.0318 10.143 7.80001 9.58347 7.80001 8.99999V5.99999H3.80001C3.56204 5.99729 3.32593 6.04233 3.10567 6.13246C2.8854 6.22258 2.68545 6.35597 2.51763 6.52472C2.34981 6.69347 2.21753 6.89416 2.12863 7.11492C2.03972 7.33569 1.99599 7.57204 2.00001 7.80999V30.19C1.99604 30.4238 2.03816 30.656 2.12396 30.8735C2.20976 31.091 2.33757 31.2894 2.50007 31.4575C2.66258 31.6256 2.85661 31.76 3.07108 31.8531C3.28555 31.9462 3.51625 31.9961 3.75001 32H32.25C32.4838 31.9961 32.7145 31.9462 32.9289 31.8531C33.1434 31.76 33.3374 31.6256 33.5 31.4575C33.6625 31.2894 33.7903 31.091 33.8761 30.8735C33.9619 30.656 34.004 30.4238 34 30.19V7.80999C34.004 7.57623 33.9619 7.34398 33.8761 7.12649C33.7903 6.90901 33.6625 6.71056 33.5 6.54248C33.3374 6.3744 33.1434 6.23998 32.9289 6.1469C32.7145 6.05382 32.4838 6.0039 32.25 5.99999ZM25.94 16.58L16.27 26.25L11 20.94C10.7665 20.6832 10.6401 20.3469 10.6465 19.9999C10.6529 19.6529 10.7918 19.3214 11.0346 19.0735C11.2775 18.8255 11.6059 18.6798 11.9527 18.6661C12.2995 18.6525 12.6384 18.7719 12.9 19L16.28 22.38L24 14.66C24.1267 14.5333 24.2772 14.4327 24.4428 14.3642C24.6083 14.2956 24.7858 14.2603 24.965 14.2603C25.1442 14.2603 25.3217 14.2956 25.4873 14.3642C25.6528 14.4327 25.8033 14.5333 25.93 14.66C26.0567 14.7867 26.1573 14.9372 26.2258 15.1027C26.2944 15.2683 26.3297 15.4458 26.3297 15.625C26.3297 15.8042 26.2944 15.9817 26.2258 16.1472C26.1573 16.3128 26.0567 16.4633 25.93 16.59L25.94 16.58Z" fill="#006EFF"/>
</g>
<defs>
<clipPath id="clip0_12_3151">
<rect width="36" height="36" fill="white"/>
</clipPath>
</defs>
</svg>
