<svg width="25" height="24" viewBox="0 0 25 24" fill="none" xmlns="http://www.w3.org/2000/svg">
<path d="M21.5 10.9492C21.5 13.7092 19.26 15.9492 16.5 15.9492H13.25V10.9992C13.25 10.5852 12.914 10.2492 12.5 10.2492C12.086 10.2492 11.75 10.5852 11.75 10.9992V15.9492H10C6.41 15.9492 3.5 13.0392 3.5 9.44922C3.5 5.85922 6.41 2.94922 10 2.94922C11.646 2.94922 13.148 3.56219 14.292 4.57019C14.774 4.99519 15.192 5.49018 15.531 6.03918C15.851 5.97918 16.171 5.94922 16.501 5.94922C19.26 5.94922 21.5 8.18922 21.5 10.9492ZM11.75 19.1882L11.03 18.4682C10.737 18.1752 10.262 18.1752 9.96899 18.4682C9.67599 18.7612 9.67599 19.2362 9.96899 19.5292L11.969 21.5292C12.038 21.5982 12.1209 21.6532 12.2129 21.6912C12.3049 21.7292 12.402 21.7492 12.5 21.7492C12.598 21.7492 12.6951 21.7292 12.7871 21.6912C12.8791 21.6532 12.962 21.5982 13.031 21.5292L15.031 19.5292C15.324 19.2362 15.324 18.7612 15.031 18.4682C14.738 18.1752 14.263 18.1752 13.97 18.4682L13.25 19.1882V15.9492H11.75V19.1882Z" fill="white"/>
</svg>
