<svg width="16" height="19" viewBox="0 0 16 19" fill="none" xmlns="http://www.w3.org/2000/svg">
<path d="M0.907489 12.1935C0.80136 12.3452 0.75726 12.5475 0.784887 12.7559C0.812514 12.9643 0.909607 13.1617 1.05481 13.3047L5.92195 18.0974C5.99387 18.1682 6.07544 18.2235 6.162 18.2602C6.24856 18.2969 6.33842 18.3141 6.42645 18.3111C6.51448 18.308 6.59895 18.2846 6.67503 18.2423C6.75112 18.2 6.81734 18.1395 6.8699 18.0644L15.0921 6.31476C15.1447 6.23963 15.1826 6.15128 15.2036 6.05476C15.2247 5.95825 15.2284 5.85546 15.2148 5.75226C15.2011 5.64906 15.1702 5.54747 15.1238 5.45331C15.0775 5.35914 15.0166 5.27423 14.9447 5.20343L10.0776 0.410689C10.0057 0.339881 9.92409 0.284568 9.83753 0.247906C9.75096 0.211244 9.6611 0.193952 9.57308 0.197018C9.48505 0.200084 9.40058 0.223448 9.32449 0.265775C9.2484 0.308101 9.18219 0.368562 9.12963 0.443705L0.907489 12.1935ZM2.40297 12.6997L9.82447 2.09407L13.5966 5.80838L13.0617 6.57273L11.6479 5.18032L11.2476 5.7525L12.6614 7.14472L12.0493 8.01962L10.6353 6.62727L10.2351 7.19945L11.649 8.59162L11.0375 9.46546L9.62354 8.07311L9.22326 8.64529L10.6372 10.0375L10.0251 10.9124L8.06031 8.97786L7.65996 9.54985L9.62473 11.4844L9.0125 12.3593L7.59854 10.967L7.19825 11.5391L8.61215 12.9313L8.00064 13.805L6.5869 12.4127L6.18661 12.9849L7.60036 14.3771L6.98822 15.2519L5.57432 13.8597L5.17403 14.4319L6.58793 15.824L6.17506 16.414L2.40297 12.6997Z" fill="#475467"/>
</svg>
