<svg width="24" height="24" viewBox="0 0 24 24" fill="none" xmlns="http://www.w3.org/2000/svg">
<path d="M3.24985 11H2.0493C2.51837 6.27563 6.27551 2.51849 10.9999 2.04942V3.25005C10.9999 3.66426 11.3357 4.00005 11.7499 4.00005C12.1641 4.00005 12.4999 3.66426 12.4999 3.25005V2.01233C17.4571 2.25643 21.465 6.11012 21.9505 11H20.7499C20.3357 11 19.9999 11.3358 19.9999 11.75C19.9999 12.1643 20.3357 12.5 20.7499 12.5H21.9876C21.7353 17.625 17.6248 21.7354 12.4999 21.9878V20.75C12.4999 20.3358 12.1641 20 11.7499 20C11.3357 20 10.9999 20.3358 10.9999 20.75V21.9507C6.11 21.4652 2.2563 17.4572 2.01221 12.5H3.24985C3.66406 12.5 3.99985 12.1643 3.99985 11.75C3.99985 11.3358 3.66406 11 3.24985 11ZM14.6537 11.5258C14.2351 10.5491 13.445 9.77902 12.4579 9.38564L8.42971 7.78048C8.02192 7.61798 7.61764 8.02227 7.78015 8.43006L9.38538 12.4582C9.77877 13.4453 10.5488 14.2354 11.5255 14.654L15.8509 16.5077C16.2658 16.6855 16.6853 16.266 16.5075 15.8512L14.6537 11.5258Z" fill="#006EFF"/>
</svg>
