<svg width="17" height="17" viewBox="0 0 17 17" fill="none" xmlns="http://www.w3.org/2000/svg">
<path d="M16.5966 2.06338C16.6859 1.93656 16.7372 1.78915 16.745 1.63687C16.7529 1.48459 16.7169 1.33316 16.641 1.19874C16.565 1.06431 16.452 0.951933 16.314 0.873591C16.1759 0.795249 16.018 0.753883 15.8571 0.753906H1.63454C1.47375 0.753985 1.316 0.795378 1.17808 0.873677C1.04016 0.951976 0.927235 1.06425 0.851342 1.19854C0.77545 1.33283 0.739426 1.4841 0.747109 1.63625C0.754792 1.7884 0.805894 1.93573 0.894971 2.06254L7.85689 11.9564V15.0697H5.19017V16.7539H12.3014V15.0697H9.6347V11.9564L16.5966 2.06338ZM8.7458 10.183L5.66573 5.80654H11.8259L8.7458 10.183ZM14.1966 2.43812L13.0117 4.12233H4.47993L3.29502 2.43812H14.1966Z" fill="#475467"/>
</svg>
