<svg width="51" height="48" viewBox="0 0 51 48" fill="none" xmlns="http://www.w3.org/2000/svg">
<path d="M18.0244 14H30.7479M24.3862 28V15M21.3569 42H8.4819C7.91949 42 7.38011 41.7893 6.98243 41.4142C6.58474 41.0391 6.36133 40.5304 6.36133 40V7C6.36133 6.46957 6.58474 5.96086 6.98243 5.58579C7.38011 5.21071 7.91949 5 8.4819 5H42.411C42.9734 5 43.5128 5.21071 43.9104 5.58579C44.3081 5.96086 44.5315 6.46957 44.5315 7V16.717" stroke="white" stroke-width="4" stroke-linecap="round" stroke-linejoin="round"/>
<path d="M28.627 38L39.7599 23.5L44.5312 27L32.8681 42H28.627V38Z" fill="white" stroke="white" stroke-width="4" stroke-linecap="round" stroke-linejoin="round"/>
</svg>
