<svg width="10" height="10" viewBox="0 0 10 10" fill="none" xmlns="http://www.w3.org/2000/svg">
<path d="M5 6.25C5.66304 6.25 6.29893 5.98661 6.76777 5.51777C7.23661 5.04893 7.5 4.41304 7.5 3.75C7.5 3.08696 7.23661 2.45107 6.76777 1.98223C6.29893 1.51339 5.66304 1.25 5 1.25C4.33696 1.25 3.70107 1.51339 3.23223 1.98223C2.76339 2.45107 2.5 3.08696 2.5 3.75C2.5 4.41304 2.76339 5.04893 3.23223 5.51777C3.70107 5.98661 4.33696 6.25 5 6.25ZM5 6.875C4.1712 6.875 3.37634 6.54576 2.79029 5.95971C2.20424 5.37366 1.875 4.5788 1.875 3.75C1.875 2.9212 2.20424 2.12634 2.79029 1.54029C3.37634 0.95424 4.1712 0.625 5 0.625C5.8288 0.625 6.62366 0.95424 7.20971 1.54029C7.79576 2.12634 8.125 2.9212 8.125 3.75C8.125 4.5788 7.79576 5.37366 7.20971 5.95971C6.62366 6.54576 5.8288 6.875 5 6.875Z" fill="white"/>
<path d="M5 6.25C5.20833 6.25 5.3125 6.35417 5.3125 6.5625V9.0625C5.3125 9.27083 5.20833 9.375 5 9.375C4.79167 9.375 4.6875 9.27083 4.6875 9.0625V6.5625C4.6875 6.35417 4.79167 6.25 5 6.25Z" fill="white"/>
<path d="M3.4375 7.8125H6.5625C6.77083 7.8125 6.875 7.91667 6.875 8.125C6.875 8.33333 6.77083 8.4375 6.5625 8.4375H3.4375C3.22917 8.4375 3.125 8.33333 3.125 8.125C3.125 7.91667 3.22917 7.8125 3.4375 7.8125Z" fill="white"/>
</svg>
