<svg width="17" height="17" viewBox="0 0 17 17" fill="none" xmlns="http://www.w3.org/2000/svg">
<path d="M8.74039 9.32633C8.64905 9.32633 8.56913 9.30348 8.48921 9.2692L1.06812 5.55572C0.971603 5.50894 0.890207 5.4359 0.833254 5.34496C0.776301 5.25402 0.746094 5.14887 0.746094 5.04155C0.746094 4.93422 0.776301 4.82907 0.833254 4.73813C0.890207 4.6472 0.971603 4.57415 1.06812 4.52737L8.48921 0.813893C8.64905 0.733911 8.84314 0.733911 9.00298 0.813893L16.4241 4.52737C16.5206 4.57415 16.602 4.6472 16.6589 4.73813C16.7159 4.82907 16.7461 4.93422 16.7461 5.04155C16.7461 5.14887 16.7159 5.25402 16.6589 5.34496C16.602 5.4359 16.5206 5.50894 16.4241 5.55572L9.00298 9.2692C8.92306 9.31491 8.83172 9.32633 8.7518 9.32633H8.74039ZM2.598 5.04155L8.74039 8.11517L14.8828 5.04155L8.74039 1.96793L2.598 5.04155Z" fill="#475467"/>
<path d="M8.74039 13.0414C8.64905 13.0414 8.56913 13.0185 8.48921 12.9842L1.06812 9.27075C0.971603 9.22397 0.890207 9.15092 0.833254 9.05999C0.776301 8.96905 0.746094 8.8639 0.746094 8.75657C0.746094 8.64925 0.776301 8.5441 0.833254 8.45316C0.890207 8.36222 0.971603 8.28918 1.06812 8.2424L4.77866 6.39137C5.06409 6.25426 5.4066 6.36852 5.54361 6.64275C5.68061 6.9284 5.56644 7.27118 5.29243 7.40829L2.598 8.75657L8.74039 11.8302L14.8828 8.75657L12.1883 7.40829C12.1205 7.37581 12.0599 7.32991 12.0102 7.27335C11.9605 7.21679 11.9228 7.15075 11.8994 7.07921C11.8759 7.00768 11.8671 6.93212 11.8736 6.85711C11.8801 6.78209 11.9017 6.70917 11.9372 6.64275C12.0742 6.35709 12.4167 6.24283 12.7021 6.39137L16.4127 8.2424C16.5092 8.28918 16.5906 8.36222 16.6475 8.45316C16.7045 8.5441 16.7347 8.64925 16.7347 8.75657C16.7347 8.8639 16.7045 8.96905 16.6475 9.05999C16.5906 9.15092 16.5092 9.22397 16.4127 9.27075L8.99156 12.9842C8.91164 13.0299 8.8203 13.0414 8.74039 13.0414Z" fill="#475467"/>
<path d="M8.74039 16.7542C8.64905 16.7542 8.56913 16.7314 8.48921 16.6971L1.06812 12.9836C0.971603 12.9369 0.890207 12.8638 0.833254 12.7729C0.776301 12.6819 0.746094 12.5768 0.746094 12.4695C0.746094 12.3621 0.776301 12.257 0.833254 12.1661C0.890207 12.0751 0.971603 12.0021 1.06812 11.9553L4.77866 10.1043C5.06409 9.96715 5.4066 10.0814 5.54361 10.3556C5.68061 10.6413 5.56644 10.9841 5.29243 11.1212L2.598 12.4695L8.74039 15.5431L14.8828 12.4695L12.1883 11.1212C12.1205 11.0887 12.0599 11.0428 12.0102 10.9862C11.9605 10.9297 11.9228 10.8636 11.8994 10.7921C11.8759 10.7206 11.8671 10.645 11.8736 10.57C11.8801 10.495 11.9017 10.4221 11.9372 10.3556C12.0742 10.07 12.4167 9.95572 12.7021 10.1043L16.4127 11.9553C16.5092 12.0021 16.5906 12.0751 16.6475 12.1661C16.7045 12.257 16.7347 12.3621 16.7347 12.4695C16.7347 12.5768 16.7045 12.6819 16.6475 12.7729C16.5906 12.8638 16.5092 12.9369 16.4127 12.9836L8.99156 16.6971C8.91164 16.7428 8.8203 16.7542 8.74039 16.7542Z" fill="#475467"/>
</svg>
