<svg width="20" height="20" viewBox="0 0 20 20" fill="none" xmlns="http://www.w3.org/2000/svg">
<g clip-path="url(#clip0_422_2565)">
<path d="M14.95 14.9497C13.5255 16.0355 11.791 16.6371 10 16.6664C4.16671 16.6664 0.833374 9.99969 0.833374 9.99969C1.86995 8.06794 3.30765 6.3802 5.05004 5.0497M8.25004 3.53303C8.82365 3.39876 9.41093 3.33164 10 3.33303C15.8334 3.33303 19.1667 9.99969 19.1667 9.99969C18.6609 10.946 18.0576 11.837 17.3667 12.658M11.7667 11.7664C11.5378 12.012 11.2618 12.209 10.9552 12.3456C10.6485 12.4823 10.3175 12.5557 9.98178 12.5617C9.64611 12.5676 9.31268 12.5058 9.00138 12.3801C8.69009 12.2544 8.40731 12.0672 8.16991 11.8298C7.93252 11.5924 7.74537 11.3096 7.61963 10.9984C7.4939 10.6871 7.43215 10.3536 7.43807 10.018C7.44399 9.68228 7.51746 9.35123 7.6541 9.04457C7.79074 8.7379 7.98775 8.4619 8.23337 8.23303" stroke="#7C7C7C" stroke-width="1.5" stroke-linecap="round" stroke-linejoin="round"/>
<path d="M0.833374 0.833008L19.1667 19.1663" stroke="#7C7C7C" stroke-width="1.5" stroke-linecap="round" stroke-linejoin="round"/>
</g>
<defs>
<clipPath id="clip0_422_2565">
<rect width="20" height="20" fill="white"/>
</clipPath>
</defs>
</svg>
