<svg width="24" height="24" viewBox="0 0 24 24" fill="none" xmlns="http://www.w3.org/2000/svg">
<path d="M12 15.0002C13.6569 15.0002 15 13.6571 15 12.0002C15 10.3434 13.6569 9.00024 12 9.00024C10.3431 9.00024 9 10.3434 9 12.0002C9 13.6571 10.3431 15.0002 12 15.0002Z" fill="#98A2B3"/>
<path d="M23.0081 11.1846C21.7678 9.26649 20.1586 7.63712 18.3548 6.47228C16.3593 5.18228 14.1562 4.50024 11.984 4.50024C9.9909 4.50024 8.03105 5.06978 6.15886 6.1929C4.24965 7.33806 2.51996 9.01102 1.01761 11.1649C0.848014 11.4084 0.754608 11.6967 0.749266 11.9933C0.743924 12.29 0.826888 12.5815 0.987615 12.8309C2.22558 14.7682 3.81886 16.3999 5.59449 17.5488C7.59371 18.844 9.74527 19.5002 11.984 19.5002C14.1736 19.5002 16.3814 18.8238 18.3684 17.5446C20.1712 16.3835 21.7771 14.7481 23.0128 12.814C23.168 12.5704 23.25 12.2874 23.2492 11.9986C23.2483 11.7098 23.1647 11.4273 23.0081 11.1846ZM12 16.5002C11.1099 16.5002 10.2399 16.2363 9.49989 15.7419C8.75987 15.2474 8.1831 14.5446 7.8425 13.7223C7.50191 12.9001 7.41279 11.9953 7.58643 11.1223C7.76006 10.2494 8.18864 9.4476 8.81798 8.81826C9.44732 8.18893 10.2491 7.76034 11.1221 7.58671C11.995 7.41308 12.8998 7.50219 13.722 7.84279C14.5443 8.18338 15.2471 8.76016 15.7416 9.50018C16.236 10.2402 16.5 11.1102 16.5 12.0002C16.4986 13.1933 16.0241 14.3371 15.1804 15.1807C14.3368 16.0243 13.193 16.4989 12 16.5002Z" fill="#98A2B3"/>
</svg>
