<svg width="20" height="20" viewBox="0 0 20 20" fill="none" xmlns="http://www.w3.org/2000/svg">
<g clip-path="url(#clip0_161_12073)">
<path d="M6.66675 11.6667C6.66675 11.6667 7.91675 13.3333 10.0001 13.3333C12.0834 13.3333 13.3334 11.6667 13.3334 11.6667M12.5001 7.49999H12.5084M7.50008 7.49999H7.50842M18.3334 9.99999C18.3334 14.6024 14.6025 18.3333 10.0001 18.3333C5.39771 18.3333 1.66675 14.6024 1.66675 9.99999C1.66675 5.39762 5.39771 1.66666 10.0001 1.66666C14.6025 1.66666 18.3334 5.39762 18.3334 9.99999ZM12.9167 7.49999C12.9167 7.73011 12.7302 7.91666 12.5001 7.91666C12.27 7.91666 12.0834 7.73011 12.0834 7.49999C12.0834 7.26987 12.27 7.08332 12.5001 7.08332C12.7302 7.08332 12.9167 7.26987 12.9167 7.49999ZM7.91675 7.49999C7.91675 7.73011 7.7302 7.91666 7.50008 7.91666C7.26996 7.91666 7.08341 7.73011 7.08341 7.49999C7.08341 7.26987 7.26996 7.08332 7.50008 7.08332C7.7302 7.08332 7.91675 7.26987 7.91675 7.49999Z" stroke="#667085" stroke-width="1.5" stroke-linecap="round" stroke-linejoin="round"/>
</g>
<defs>
<clipPath id="clip0_161_12073">
<rect width="20" height="20" fill="white"/>
</clipPath>
</defs>
</svg>
