<svg width="17" height="17" viewBox="0 0 17 17" fill="none" xmlns="http://www.w3.org/2000/svg">
<mask id="path-1-inside-1_713_14546" fill="white">
<path d="M14.8336 13.7986C15.3478 14.0843 15.7728 14.4861 16.1086 15.0039C16.4444 15.5218 16.6569 16.1051 16.7461 16.7539H15.8804C15.8227 16.4146 15.7151 16.0992 15.5577 15.8075C15.4003 15.5158 15.2088 15.2658 14.9832 15.0575C14.7576 14.8492 14.5031 14.6825 14.2198 14.5575C13.9365 14.4325 13.6426 14.373 13.3383 14.3789C13.0288 14.3789 12.7349 14.4385 12.4569 14.5575C12.1788 14.6766 11.9243 14.8402 11.6935 15.0486C11.4626 15.2569 11.2711 15.5099 11.1189 15.8075C10.9668 16.1051 10.8592 16.4206 10.7963 16.7539H9.93055C10.0145 16.1111 10.2244 15.5307 10.5602 15.0129C10.896 14.495 11.3236 14.0903 11.843 13.7986C11.5439 13.5307 11.3131 13.2063 11.1504 12.8254C10.9878 12.4445 10.9038 12.0397 10.8986 11.6111C10.8986 11.3433 10.9301 11.0844 10.993 10.8344C11.056 10.5844 11.1504 10.3493 11.2763 10.129C11.4023 9.90879 11.5518 9.71236 11.7249 9.53975C11.8981 9.36713 12.0922 9.2213 12.3073 9.10225C12.1657 8.87012 12.003 8.66476 11.8194 8.48619C11.6357 8.30762 11.4364 8.14989 11.2213 8.01299C11.0061 7.87608 10.7805 7.77787 10.5444 7.71835C10.3083 7.65883 10.0643 7.62311 9.8125 7.61121C9.39276 7.61121 8.99138 7.70347 8.60837 7.88799C8.22535 8.07251 7.89218 8.34334 7.60886 8.70047C7.73478 9.08737 7.79774 9.48618 7.79774 9.89688C7.79774 10.4445 7.69018 10.9594 7.47507 11.4415C7.25995 11.9236 6.95826 12.3284 6.57 12.6558C6.91104 12.8522 7.21797 13.0933 7.49081 13.379C7.76364 13.6647 7.99974 13.9861 8.19912 14.3432C8.3985 14.7004 8.54803 15.0813 8.64772 15.4861C8.74741 15.8908 8.79987 16.3134 8.80512 16.7539H7.79774C7.79774 16.2837 7.71904 15.8402 7.56164 15.4236C7.40423 15.0069 7.18912 14.6438 6.91629 14.3343C6.64345 14.0248 6.32078 13.7778 5.94826 13.5932C5.57574 13.4087 5.18485 13.3194 4.77561 13.3254C4.35587 13.3254 3.96498 13.4147 3.60296 13.5932C3.24093 13.7718 2.92088 14.0159 2.6428 14.3254C2.36472 14.6349 2.14698 15.001 1.98958 15.4236C1.83217 15.8462 1.75347 16.2896 1.75347 16.7539H0.746094C0.746094 16.3194 0.798561 15.8998 0.903497 15.495C1.00843 15.0902 1.15796 14.7093 1.35209 14.3522C1.54622 13.995 1.77971 13.6736 2.05254 13.3879C2.32537 13.1022 2.63493 12.8581 2.98121 12.6558C2.59295 12.3284 2.29127 11.9236 2.07615 11.4415C1.86103 10.9594 1.75347 10.4445 1.75347 9.89688C1.75347 9.42665 1.83217 8.98321 1.98958 8.56655C2.14698 8.14989 2.3621 7.7868 2.63493 7.47728C2.90776 7.16776 3.22781 6.92074 3.59509 6.73622C3.96236 6.5517 4.35587 6.46242 4.77561 6.46837C5.22158 6.46837 5.64395 6.57551 6.0427 6.78979C6.44145 7.00408 6.78774 7.30169 7.08156 7.68264C7.21797 7.53383 7.36488 7.3999 7.52229 7.28086C7.67969 7.16181 7.84496 7.04872 8.01811 6.94158C7.62985 6.6142 7.32816 6.20945 7.11304 5.72731C6.89792 5.24518 6.79036 4.73031 6.79036 4.1827C6.79036 3.71247 6.86906 3.26902 7.02647 2.85236C7.18387 2.4357 7.39899 2.07261 7.67182 1.7631C7.94465 1.45358 8.2647 1.20656 8.63198 1.02204C8.99925 0.837517 9.39276 0.748233 9.8125 0.754185C10.227 0.754185 10.6179 0.843469 10.9851 1.02204C11.3524 1.20061 11.6725 1.44465 11.9453 1.75417C12.2181 2.06369 12.4359 2.42975 12.5985 2.85236C12.7612 3.27497 12.8399 3.71842 12.8346 4.1827C12.8346 4.73031 12.7271 5.24518 12.512 5.72731C12.2968 6.20945 11.9952 6.6142 11.6069 6.94158C11.9742 7.16181 12.3047 7.42966 12.5985 7.74513C12.8923 8.06061 13.1416 8.42667 13.3462 8.84333C13.682 8.84333 13.9968 8.91476 14.2906 9.05761C14.5844 9.20047 14.8441 9.39987 15.0698 9.65582C15.2954 9.91176 15.4685 10.2034 15.5892 10.5308C15.7099 10.8582 15.7728 11.2183 15.7781 11.6111C15.7781 12.0397 15.6967 12.4445 15.5341 12.8254C15.3714 13.2063 15.138 13.5307 14.8336 13.7986ZM4.77561 12.1826C5.05369 12.1826 5.3134 12.123 5.55475 12.004C5.7961 11.8849 6.01122 11.7213 6.2001 11.5129C6.38899 11.3046 6.53327 11.0635 6.63296 10.7897C6.73265 10.5159 6.78512 10.2183 6.79036 9.89688C6.79036 9.58141 6.7379 9.28677 6.63296 9.01297C6.52803 8.73916 6.38374 8.49512 6.2001 8.28084C6.01647 8.06656 5.80397 7.90287 5.56262 7.78978C5.32127 7.67668 5.05893 7.61716 4.77561 7.61121C4.49753 7.61121 4.23781 7.67073 3.99646 7.78978C3.75511 7.90882 3.53999 8.07251 3.35111 8.28084C3.16223 8.48917 3.01794 8.73024 2.91825 9.00404C2.81856 9.27785 2.7661 9.57546 2.76085 9.89688C2.76085 10.2124 2.81332 10.507 2.91825 10.7808C3.02319 11.0546 3.16747 11.2986 3.35111 11.5129C3.53475 11.7272 3.74724 11.8909 3.98859 12.004C4.22994 12.1171 4.49228 12.1766 4.77561 12.1826ZM7.79774 4.1827C7.79774 4.49817 7.85021 4.79281 7.95514 5.06661C8.06008 5.34041 8.20437 5.58446 8.388 5.79874C8.57164 6.01302 8.78413 6.17671 9.02548 6.2898C9.26683 6.4029 9.52917 6.46242 9.8125 6.46837C10.0906 6.46837 10.3503 6.40885 10.5916 6.2898C10.833 6.17076 11.0481 6.00707 11.237 5.79874C11.4259 5.59041 11.5702 5.34934 11.6699 5.07554C11.7695 4.80173 11.822 4.50412 11.8273 4.1827C11.8273 3.86723 11.7748 3.57259 11.6699 3.29878C11.5649 3.02498 11.4206 2.78094 11.237 2.56665C11.0534 2.35237 10.8409 2.18868 10.5995 2.07559C10.3582 1.9625 10.0958 1.90297 9.8125 1.89702C9.53442 1.89702 9.2747 1.95655 9.03335 2.07559C8.792 2.19464 8.57689 2.35832 8.388 2.56665C8.19912 2.77498 8.05483 3.01605 7.95514 3.28986C7.85546 3.56366 7.80299 3.86127 7.79774 4.1827ZM13.3383 9.8076C13.118 9.8076 12.9133 9.85522 12.7245 9.95045C12.5356 10.0457 12.3677 10.1737 12.2208 10.3344C12.0739 10.4951 11.9584 10.6856 11.8745 10.9058C11.7905 11.126 11.7486 11.3611 11.7486 11.6111C11.7486 11.8611 11.7905 12.0933 11.8745 12.3076C11.9584 12.5218 12.0712 12.7123 12.2129 12.879C12.3546 13.0456 12.5225 13.1766 12.7166 13.2718C12.9107 13.3671 13.118 13.4147 13.3383 13.4147C13.5587 13.4147 13.7633 13.3671 13.9522 13.2718C14.1411 13.1766 14.309 13.0486 14.4559 12.8879C14.6028 12.7272 14.7182 12.5367 14.8022 12.3165C14.8861 12.0962 14.9281 11.8611 14.9281 11.6111C14.9281 11.3611 14.8861 11.129 14.8022 10.9147C14.7182 10.7004 14.6054 10.51 14.4638 10.3433C14.3221 10.1766 14.1542 10.0457 13.9601 9.95045C13.7659 9.85522 13.5587 9.8076 13.3383 9.8076Z"/>
</mask>
<path d="M14.8336 13.7986C15.3478 14.0843 15.7728 14.4861 16.1086 15.0039C16.4444 15.5218 16.6569 16.1051 16.7461 16.7539H15.8804C15.8227 16.4146 15.7151 16.0992 15.5577 15.8075C15.4003 15.5158 15.2088 15.2658 14.9832 15.0575C14.7576 14.8492 14.5031 14.6825 14.2198 14.5575C13.9365 14.4325 13.6426 14.373 13.3383 14.3789C13.0288 14.3789 12.7349 14.4385 12.4569 14.5575C12.1788 14.6766 11.9243 14.8402 11.6935 15.0486C11.4626 15.2569 11.2711 15.5099 11.1189 15.8075C10.9668 16.1051 10.8592 16.4206 10.7963 16.7539H9.93055C10.0145 16.1111 10.2244 15.5307 10.5602 15.0129C10.896 14.495 11.3236 14.0903 11.843 13.7986C11.5439 13.5307 11.3131 13.2063 11.1504 12.8254C10.9878 12.4445 10.9038 12.0397 10.8986 11.6111C10.8986 11.3433 10.9301 11.0844 10.993 10.8344C11.056 10.5844 11.1504 10.3493 11.2763 10.129C11.4023 9.90879 11.5518 9.71236 11.7249 9.53975C11.8981 9.36713 12.0922 9.2213 12.3073 9.10225C12.1657 8.87012 12.003 8.66476 11.8194 8.48619C11.6357 8.30762 11.4364 8.14989 11.2213 8.01299C11.0061 7.87608 10.7805 7.77787 10.5444 7.71835C10.3083 7.65883 10.0643 7.62311 9.8125 7.61121C9.39276 7.61121 8.99138 7.70347 8.60837 7.88799C8.22535 8.07251 7.89218 8.34334 7.60886 8.70047C7.73478 9.08737 7.79774 9.48618 7.79774 9.89688C7.79774 10.4445 7.69018 10.9594 7.47507 11.4415C7.25995 11.9236 6.95826 12.3284 6.57 12.6558C6.91104 12.8522 7.21797 13.0933 7.49081 13.379C7.76364 13.6647 7.99974 13.9861 8.19912 14.3432C8.3985 14.7004 8.54803 15.0813 8.64772 15.4861C8.74741 15.8908 8.79987 16.3134 8.80512 16.7539H7.79774C7.79774 16.2837 7.71904 15.8402 7.56164 15.4236C7.40423 15.0069 7.18912 14.6438 6.91629 14.3343C6.64345 14.0248 6.32078 13.7778 5.94826 13.5932C5.57574 13.4087 5.18485 13.3194 4.77561 13.3254C4.35587 13.3254 3.96498 13.4147 3.60296 13.5932C3.24093 13.7718 2.92088 14.0159 2.6428 14.3254C2.36472 14.6349 2.14698 15.001 1.98958 15.4236C1.83217 15.8462 1.75347 16.2896 1.75347 16.7539H0.746094C0.746094 16.3194 0.798561 15.8998 0.903497 15.495C1.00843 15.0902 1.15796 14.7093 1.35209 14.3522C1.54622 13.995 1.77971 13.6736 2.05254 13.3879C2.32537 13.1022 2.63493 12.8581 2.98121 12.6558C2.59295 12.3284 2.29127 11.9236 2.07615 11.4415C1.86103 10.9594 1.75347 10.4445 1.75347 9.89688C1.75347 9.42665 1.83217 8.98321 1.98958 8.56655C2.14698 8.14989 2.3621 7.7868 2.63493 7.47728C2.90776 7.16776 3.22781 6.92074 3.59509 6.73622C3.96236 6.5517 4.35587 6.46242 4.77561 6.46837C5.22158 6.46837 5.64395 6.57551 6.0427 6.78979C6.44145 7.00408 6.78774 7.30169 7.08156 7.68264C7.21797 7.53383 7.36488 7.3999 7.52229 7.28086C7.67969 7.16181 7.84496 7.04872 8.01811 6.94158C7.62985 6.6142 7.32816 6.20945 7.11304 5.72731C6.89792 5.24518 6.79036 4.73031 6.79036 4.1827C6.79036 3.71247 6.86906 3.26902 7.02647 2.85236C7.18387 2.4357 7.39899 2.07261 7.67182 1.7631C7.94465 1.45358 8.2647 1.20656 8.63198 1.02204C8.99925 0.837517 9.39276 0.748233 9.8125 0.754185C10.227 0.754185 10.6179 0.843469 10.9851 1.02204C11.3524 1.20061 11.6725 1.44465 11.9453 1.75417C12.2181 2.06369 12.4359 2.42975 12.5985 2.85236C12.7612 3.27497 12.8399 3.71842 12.8346 4.1827C12.8346 4.73031 12.7271 5.24518 12.512 5.72731C12.2968 6.20945 11.9952 6.6142 11.6069 6.94158C11.9742 7.16181 12.3047 7.42966 12.5985 7.74513C12.8923 8.06061 13.1416 8.42667 13.3462 8.84333C13.682 8.84333 13.9968 8.91476 14.2906 9.05761C14.5844 9.20047 14.8441 9.39987 15.0698 9.65582C15.2954 9.91176 15.4685 10.2034 15.5892 10.5308C15.7099 10.8582 15.7728 11.2183 15.7781 11.6111C15.7781 12.0397 15.6967 12.4445 15.5341 12.8254C15.3714 13.2063 15.138 13.5307 14.8336 13.7986ZM4.77561 12.1826C5.05369 12.1826 5.3134 12.123 5.55475 12.004C5.7961 11.8849 6.01122 11.7213 6.2001 11.5129C6.38899 11.3046 6.53327 11.0635 6.63296 10.7897C6.73265 10.5159 6.78512 10.2183 6.79036 9.89688C6.79036 9.58141 6.7379 9.28677 6.63296 9.01297C6.52803 8.73916 6.38374 8.49512 6.2001 8.28084C6.01647 8.06656 5.80397 7.90287 5.56262 7.78978C5.32127 7.67668 5.05893 7.61716 4.77561 7.61121C4.49753 7.61121 4.23781 7.67073 3.99646 7.78978C3.75511 7.90882 3.53999 8.07251 3.35111 8.28084C3.16223 8.48917 3.01794 8.73024 2.91825 9.00404C2.81856 9.27785 2.7661 9.57546 2.76085 9.89688C2.76085 10.2124 2.81332 10.507 2.91825 10.7808C3.02319 11.0546 3.16747 11.2986 3.35111 11.5129C3.53475 11.7272 3.74724 11.8909 3.98859 12.004C4.22994 12.1171 4.49228 12.1766 4.77561 12.1826ZM7.79774 4.1827C7.79774 4.49817 7.85021 4.79281 7.95514 5.06661C8.06008 5.34041 8.20437 5.58446 8.388 5.79874C8.57164 6.01302 8.78413 6.17671 9.02548 6.2898C9.26683 6.4029 9.52917 6.46242 9.8125 6.46837C10.0906 6.46837 10.3503 6.40885 10.5916 6.2898C10.833 6.17076 11.0481 6.00707 11.237 5.79874C11.4259 5.59041 11.5702 5.34934 11.6699 5.07554C11.7695 4.80173 11.822 4.50412 11.8273 4.1827C11.8273 3.86723 11.7748 3.57259 11.6699 3.29878C11.5649 3.02498 11.4206 2.78094 11.237 2.56665C11.0534 2.35237 10.8409 2.18868 10.5995 2.07559C10.3582 1.9625 10.0958 1.90297 9.8125 1.89702C9.53442 1.89702 9.2747 1.95655 9.03335 2.07559C8.792 2.19464 8.57689 2.35832 8.388 2.56665C8.19912 2.77498 8.05483 3.01605 7.95514 3.28986C7.85546 3.56366 7.80299 3.86127 7.79774 4.1827ZM13.3383 9.8076C13.118 9.8076 12.9133 9.85522 12.7245 9.95045C12.5356 10.0457 12.3677 10.1737 12.2208 10.3344C12.0739 10.4951 11.9584 10.6856 11.8745 10.9058C11.7905 11.126 11.7486 11.3611 11.7486 11.6111C11.7486 11.8611 11.7905 12.0933 11.8745 12.3076C11.9584 12.5218 12.0712 12.7123 12.2129 12.879C12.3546 13.0456 12.5225 13.1766 12.7166 13.2718C12.9107 13.3671 13.118 13.4147 13.3383 13.4147C13.5587 13.4147 13.7633 13.3671 13.9522 13.2718C14.1411 13.1766 14.309 13.0486 14.4559 12.8879C14.6028 12.7272 14.7182 12.5367 14.8022 12.3165C14.8861 12.0962 14.9281 11.8611 14.9281 11.6111C14.9281 11.3611 14.8861 11.129 14.8022 10.9147C14.7182 10.7004 14.6054 10.51 14.4638 10.3433C14.3221 10.1766 14.1542 10.0457 13.9601 9.95045C13.7659 9.85522 13.5587 9.8076 13.3383 9.8076Z" fill="#475467" stroke="#475467" stroke-width="4" mask="url(#path-1-inside-1_713_14546)"/>
</svg>
