<svg width="24" height="24" viewBox="0 0 24 24" fill="none" xmlns="http://www.w3.org/2000/svg">
<path d="M12.0029 2C13.5135 2.00087 15.0042 2.34375 16.3633 3.00292C17.7224 3.66208 18.9145 4.6204 19.8501 5.80596C20.7858 6.99152 21.4407 8.37354 21.7657 9.8483C22.0907 11.3231 22.0774 12.8523 21.7268 14.3211C21.3762 15.79 20.6973 17.1604 19.7412 18.3296C18.785 19.4987 17.5764 20.4361 16.2061 21.0715C14.8357 21.707 13.3392 22.0239 11.8289 21.9985C10.3185 21.9731 8.83352 21.606 7.48534 20.9249L7.33404 20.8436L2.77647 21.9811C2.68876 22.0032 2.59731 22.0059 2.50843 21.9892C2.41954 21.9725 2.33535 21.9367 2.26165 21.8843C2.18795 21.8319 2.1265 21.7641 2.08154 21.6857C2.03659 21.6072 2.00919 21.52 2.00125 21.4299V21.3274L2.01876 21.2236L3.15658 16.6687L3.07781 16.5187C2.50563 15.3926 2.15341 14.1678 2.04001 12.9099L2.00875 12.4324L2 11.9999C2 9.34779 3.05387 6.80427 4.92978 4.92891C6.80569 3.05356 9.34996 2 12.0029 2ZM12.6281 13.2499H8.87699L8.76446 13.2599C8.62031 13.286 8.48991 13.3619 8.39601 13.4743C8.3021 13.5867 8.25066 13.7285 8.25066 13.8749C8.25066 14.0214 8.3021 14.1632 8.39601 14.2756C8.48991 14.388 8.62031 14.4638 8.76446 14.4899L8.87699 14.4999H12.6281L12.7406 14.4899C12.8847 14.4638 13.0152 14.388 13.1091 14.2756C13.203 14.1632 13.2544 14.0214 13.2544 13.8749C13.2544 13.7285 13.203 13.5867 13.1091 13.4743C13.0152 13.3619 12.8847 13.286 12.7406 13.2599L12.6281 13.2499ZM15.1288 9.49996H8.87699L8.76446 9.50996C8.62031 9.53605 8.48991 9.61191 8.39601 9.72431C8.3021 9.83671 8.25066 9.97851 8.25066 10.125C8.25066 10.2714 8.3021 10.4132 8.39601 10.5256C8.48991 10.638 8.62031 10.7139 8.76446 10.7399L8.87699 10.7499H15.1288L15.2413 10.7399C15.3855 10.7139 15.5159 10.638 15.6098 10.5256C15.7037 10.4132 15.7551 10.2714 15.7551 10.125C15.7551 9.97851 15.7037 9.83671 15.6098 9.72431C15.5159 9.61191 15.3855 9.53605 15.2413 9.50996L15.1288 9.49996Z" fill="#F33358"/>
</svg>
