<svg width="24" height="24" viewBox="0 0 24 24" fill="none" xmlns="http://www.w3.org/2000/svg">
<path d="M12 2.39999C13.4498 2.40083 14.8805 2.73 16.1848 3.3628C17.4891 3.9956 18.6332 4.91559 19.5312 6.05374C20.4292 7.19189 21.0577 8.51863 21.3696 9.93441C21.6816 11.3502 21.6688 12.8182 21.3323 14.2284C20.9958 15.6385 20.3442 16.9541 19.4266 18.0765C18.509 19.1988 17.3491 20.0988 16.0339 20.7088C14.7188 21.3188 13.2825 21.623 11.833 21.5986C10.3835 21.5743 8.95831 21.2219 7.66442 20.568L7.51922 20.49L3.14522 21.582C3.06105 21.6032 2.97328 21.6058 2.88797 21.5898C2.80267 21.5737 2.72187 21.5393 2.65113 21.489C2.5804 21.4387 2.52143 21.3737 2.47828 21.2984C2.43514 21.223 2.40885 21.1393 2.40122 21.0528V20.9544L2.41802 20.8548L3.51002 16.482L3.43442 16.338C2.88529 15.257 2.54725 14.0812 2.43842 12.8736L2.40842 12.4152L2.40002 12C2.40002 9.45392 3.41145 7.01212 5.2118 5.21177C7.01215 3.41142 9.45395 2.39999 12 2.39999ZM12 3.59999C10.5342 3.59976 9.09379 3.98311 7.82199 4.71196C6.55019 5.44081 5.49126 6.48979 4.75042 7.75464C4.00958 9.0195 3.61264 10.4562 3.59902 11.922C3.58541 13.3878 3.95561 14.8316 4.67282 16.11C4.72851 16.2094 4.75473 16.3226 4.74842 16.4364L4.73162 16.5492L3.82442 20.1744L7.45322 19.2696C7.52699 19.2514 7.60354 19.2473 7.67882 19.2576L7.78802 19.2828L7.89242 19.3296C9.01244 19.9566 10.2612 20.3186 11.543 20.3878C12.8247 20.457 14.1052 20.2315 15.2862 19.7287C16.4672 19.2259 17.5172 18.4591 18.3557 17.4873C19.1942 16.5154 19.7988 15.3643 20.1232 14.1224C20.4475 12.8805 20.4829 11.5807 20.2266 10.323C19.9703 9.06524 19.4293 7.88296 18.6449 6.86692C17.8605 5.85088 16.8537 5.02811 15.7018 4.46179C14.55 3.89546 13.2836 3.60065 12 3.59999ZM12.6 13.2C12.75 13.1997 12.8946 13.2556 13.0054 13.3566C13.1162 13.4576 13.1851 13.5965 13.1987 13.7458C13.2122 13.8951 13.1694 14.0441 13.0786 14.1634C12.9877 14.2827 12.8556 14.3637 12.708 14.3904L12.6 14.4H9.00002C8.85009 14.4003 8.70548 14.3444 8.59468 14.2434C8.48388 14.1424 8.41492 14.0035 8.40137 13.8542C8.38783 13.7049 8.43068 13.5559 8.52149 13.4366C8.6123 13.3173 8.74449 13.2363 8.89202 13.2096L9.00002 13.2H12.6ZM15 9.59999C15.15 9.59972 15.2946 9.65559 15.4054 9.7566C15.5162 9.85762 15.5851 9.99646 15.5987 10.1458C15.6122 10.2951 15.5694 10.4441 15.4786 10.5634C15.3877 10.6827 15.2556 10.7637 15.108 10.7904L15 10.8H9.00002C8.85009 10.8003 8.70548 10.7444 8.59468 10.6434C8.48388 10.5424 8.41492 10.4035 8.40137 10.2542C8.38783 10.1049 8.43068 9.9559 8.52149 9.8366C8.6123 9.71729 8.74449 9.63631 8.89202 9.60959L9.00002 9.59999H15Z" fill="#667085"/>
</svg>
