<svg width="32" height="36" viewBox="0 0 32 36" fill="none" xmlns="http://www.w3.org/2000/svg">
<path d="M28.9778 30.3H26.7556L26.0889 29.55H26.8444C27.2444 29.55 27.5556 29.2 27.5556 28.75C27.5556 28.3 27.2444 27.95 26.8444 27.95H24.6222L21.0222 23.9C20.7556 23.6 20.2667 23.6 20 23.9C19.7333 24.2 19.7333 24.75 20 25.05L23.6 29.1V31.6C23.6 32.05 23.9111 32.4 24.3111 32.4C24.7111 32.4 25.0222 32.05 25.0222 31.6V30.75L25.6889 31.5V34C25.6889 34.45 26 34.8 26.4 34.8C26.8 34.8 27.1111 34.45 27.1111 34V32H28.8889C29.2889 32 29.6 31.65 29.6 31.2C29.6 30.75 29.3778 30.3 28.9778 30.3Z" fill="#FFB636"/>
<path d="M29.9111 8.3C26.8444 4.25 21.4667 4.05 18.2222 7.7C17.7778 8.2 17.0667 8.2 16.6222 7.7C13.7778 4.45 9.24445 4.2 6.13334 6.95L7.02222 7.95C7.11111 8.05 7.15556 8.15 7.2 8.25C6.88889 8.55 6.57778 8.9 6.31111 9.3C6.17778 9.25 6.08889 9.2 6 9.1L5.06667 8.05C2.71111 11.05 2.4 15.55 4.35556 18.9C4.97778 20 5.77778 20.85 6.66667 21.5L16.8889 30.8C17.2444 31.15 17.7778 31.15 18.1333 30.8L28.2667 21.5C29.1111 20.85 29.8667 20.05 30.4889 19C32.3556 15.75 32.1333 11.3 29.9111 8.3Z" fill="#FF473E"/>
<path d="M6.08889 13.95H6C5.42222 13.9 5.02222 13.35 5.06667 12.7C5.28889 9.85001 7.11111 7.50001 9.6 6.85001C10.1333 6.70001 10.6667 7.10001 10.8 7.70001C10.9333 8.30001 10.5778 8.90001 10.0444 9.05001C8.4 9.45001 7.24445 11 7.11111 12.85C7.06667 13.5 6.62222 13.95 6.08889 13.95Z" fill="#D32A2A"/>
<path d="M6.22222 9.35C6.48889 8.95 6.75555 8.6 7.11111 8.3C7.06666 8.2 7.02222 8.05 6.93333 8L2.62222 3.1H4.35555C4.75555 3.1 5.06666 2.75 5.06666 2.3C5.06666 1.85 4.8 1.5 4.4 1.5H0.844442C0.444442 1.5 0.133331 1.85 0.133331 2.3V6.3C0.133331 6.75 0.444442 7.1 0.844442 7.1C1.24444 7.1 1.55555 6.75 1.55555 6.3V4.25L5.91111 9.15C6 9.25 6.13333 9.3 6.22222 9.35Z" fill="#FFB636"/>
</svg>
