<svg width="24" height="24" viewBox="0 0 24 24" fill="none" xmlns="http://www.w3.org/2000/svg">
<path d="M21 7.50002H17.656L18.47 4.24203C18.604 3.70603 18.278 3.16301 17.742 3.02901C17.208 2.89701 16.663 3.22001 16.529 3.75701L15.593 7.49902H10.655L11.469 4.24102C11.603 3.70502 11.277 3.16204 10.741 3.02804C10.207 2.89604 9.662 3.21903 9.528 3.75603L8.592 7.49801H5C4.448 7.49801 4 7.94601 4 8.49801C4 9.05001 4.448 9.49801 5 9.49801H8.09399L6.844 14.498H3C2.448 14.498 2 14.946 2 15.498C2 16.05 2.448 16.498 3 16.498H6.344L5.53 19.756C5.396 20.292 5.722 20.835 6.258 20.969C6.34 20.989 6.421 20.999 6.502 20.999C6.95 20.999 7.357 20.696 7.471 20.241L8.407 16.499H13.345L12.531 19.757C12.397 20.293 12.723 20.836 13.259 20.97C13.341 20.99 13.422 21 13.503 21C13.951 21 14.358 20.697 14.472 20.242L15.408 16.5H19C19.552 16.5 20 16.052 20 15.5C20 14.948 19.552 14.5 19 14.5H15.906L17.156 9.50002H21C21.552 9.50002 22 9.05202 22 8.50002C22 7.94802 21.552 7.50002 21 7.50002ZM13.844 14.5H8.90601L10.156 9.50002H15.094L13.844 14.5Z" fill="white"/>
</svg>
