<svg width="16" height="17" viewBox="0 0 16 17" fill="none" xmlns="http://www.w3.org/2000/svg">
<path d="M10.6667 3.83333L12.6667 1.83333M12.6667 1.83333L14.6667 3.83333M12.6667 1.83333V5.83333M8.33333 2.49999H5.2C4.0799 2.49999 3.51984 2.49999 3.09202 2.71798C2.71569 2.90973 2.40973 3.21569 2.21799 3.59201C2 4.01984 2 4.57989 2 5.69999V11.3C2 12.4201 2 12.9802 2.21799 13.408C2.40973 13.7843 2.71569 14.0903 3.09202 14.282C3.51984 14.5 4.07989 14.5 5.2 14.5H11.3333C11.9533 14.5 12.2633 14.5 12.5176 14.4318C13.2078 14.2469 13.7469 13.7078 13.9319 13.0176C14 12.7633 14 12.4533 14 11.8333M7 6.16666C7 6.90304 6.40305 7.5 5.66667 7.5C4.93029 7.5 4.33333 6.90304 4.33333 6.16666C4.33333 5.43028 4.93029 4.83333 5.66667 4.83333C6.40305 4.83333 7 5.43028 7 6.16666ZM9.99336 8.44543L4.3541 13.572C4.03691 13.8604 3.87831 14.0046 3.86429 14.1295C3.85213 14.2377 3.89364 14.3451 3.97546 14.417C4.06985 14.5 4.28419 14.5 4.71286 14.5H10.9707C11.9301 14.5 12.4098 14.5 12.7866 14.3388C13.2596 14.1365 13.6365 13.7596 13.8388 13.2866C14 12.9098 14 12.4301 14 11.4706C14 11.1478 14 10.9864 13.9647 10.8361C13.9204 10.6472 13.8353 10.4702 13.7155 10.3176C13.6202 10.1961 13.4941 10.0953 13.242 9.89363L11.3772 8.40177C11.1249 8.19993 10.9988 8.09902 10.8599 8.0634C10.7374 8.03201 10.6086 8.03608 10.4884 8.07512C10.352 8.11942 10.2324 8.22809 9.99336 8.44543Z" stroke="white" stroke-width="1.5" stroke-linecap="round" stroke-linejoin="round"/>
</svg>
