<svg width="25" height="24" viewBox="0 0 25 24" fill="none" xmlns="http://www.w3.org/2000/svg">
<path fill-rule="evenodd" clip-rule="evenodd" d="M2 6C2 3.37665 4.12665 1.25 6.75 1.25H18.75C21.3734 1.25 23.5 3.37665 23.5 6V18C23.5 20.6234 21.3734 22.75 18.75 22.75H6.75C4.12665 22.75 2 20.6234 2 18V6ZM6.75 2.75C4.95507 2.75 3.5 4.20507 3.5 6V14.5L6.02153 16.181C7.60802 17.2387 9.7205 17.0295 11.0688 15.6812L14.4312 12.3188C15.7795 10.9705 17.892 10.7613 19.4785 11.819L21.8594 13.4063C21.908 13.4387 21.9549 13.473 22 13.5091V6C22 4.20507 20.5449 2.75 18.75 2.75H6.75ZM9.25 11C10.6307 11 11.75 9.88071 11.75 8.5C11.75 7.11929 10.6307 6 9.25 6C7.86929 6 6.75 7.11929 6.75 8.5C6.75 9.88071 7.86929 11 9.25 11Z" fill="url(#paint0_linear_217_449)"/>
<defs>
<linearGradient id="paint0_linear_217_449" x1="12.75" y1="1.25" x2="12.75" y2="22.75" gradientUnits="userSpaceOnUse">
<stop stop-color="#25D366"/>
<stop offset="0.609375" stop-color="#00A884"/>
</linearGradient>
</defs>
</svg>
