<svg width="10" height="10" viewBox="0 0 10 10" fill="none" xmlns="http://www.w3.org/2000/svg">
<g clip-path="url(#clip0_756_14330)">
<path d="M8.94531 0.625H7.61719C7.50323 0.625 7.39393 0.67027 7.31335 0.750853C7.23277 0.831435 7.1875 0.940727 7.1875 1.05469C7.1875 1.16865 7.23277 1.27794 7.31335 1.35852C7.39393 1.4391 7.50323 1.48438 7.61719 1.48438H7.90801L6.74453 2.64785C6.24021 2.27284 5.62847 2.07033 5 2.07033C4.37153 2.07033 3.75979 2.27284 3.25547 2.64785L3.10762 2.5L3.62422 1.98359C3.66413 1.94368 3.69579 1.8963 3.71739 1.84416C3.73898 1.79202 3.7501 1.73613 3.7501 1.67969C3.7501 1.62325 3.73898 1.56736 3.71739 1.51521C3.69579 1.46307 3.66413 1.41569 3.62422 1.37578C3.58431 1.33587 3.53693 1.30421 3.48479 1.28261C3.43264 1.26102 3.37675 1.2499 3.32031 1.2499C3.20633 1.2499 3.09701 1.29518 3.01641 1.37578L2.5 1.89238L2.09199 1.48438H2.38281C2.49677 1.48438 2.60607 1.4391 2.68665 1.35852C2.76723 1.27794 2.8125 1.16865 2.8125 1.05469C2.8125 0.940727 2.76723 0.831435 2.68665 0.750853C2.60607 0.67027 2.49677 0.625 2.38281 0.625H1.05469C0.940727 0.625 0.831435 0.67027 0.750853 0.750853C0.67027 0.831435 0.625 0.940727 0.625 1.05469V2.38281C0.625 2.49677 0.67027 2.60607 0.750853 2.68665C0.831435 2.76723 0.940727 2.8125 1.05469 2.8125C1.16865 2.8125 1.27794 2.76723 1.35852 2.68665C1.4391 2.60607 1.48438 2.49677 1.48438 2.38281V2.09199L1.89238 2.5L1.37637 3.01602C1.3356 3.05572 1.30313 3.10312 1.28084 3.15548C1.25854 3.20783 1.24687 3.26409 1.2465 3.321C1.24612 3.3779 1.25705 3.43431 1.27866 3.48695C1.30026 3.5396 1.3321 3.58742 1.37234 3.62766C1.41258 3.6679 1.4604 3.69974 1.51305 3.72134C1.56569 3.74295 1.6221 3.75388 1.679 3.7535C1.73591 3.75313 1.79217 3.74146 1.84452 3.71916C1.89688 3.69687 1.94428 3.6644 1.98398 3.62363L2.5 3.10762L2.64785 3.25547C2.27221 3.75946 2.06962 4.37142 2.07031 5C2.07031 6.61543 3.38457 7.92969 5 7.92969C5.62974 7.93039 6.24276 7.72708 6.74727 7.35019L7.20703 7.81055L6.68867 8.32891C6.60807 8.40951 6.56279 8.51883 6.56279 8.63281C6.56279 8.7468 6.60807 8.85612 6.68867 8.93672C6.76927 9.01732 6.87859 9.0626 6.99258 9.0626C7.10656 9.0626 7.21588 9.01732 7.29648 8.93672L7.81387 8.41914L8.64141 9.24883C8.7219 9.32953 8.83116 9.37495 8.94515 9.3751C9.05914 9.37525 9.16851 9.33011 9.24922 9.24961C9.32992 9.16911 9.37535 9.05985 9.37549 8.94586C9.37564 8.83188 9.3305 8.7225 9.25 8.6418L8.42129 7.8125L8.93672 7.29707C9.01732 7.21647 9.0626 7.10715 9.0626 6.99316C9.0626 6.87918 9.01732 6.76986 8.93672 6.68926C8.85612 6.60866 8.7468 6.56338 8.63281 6.56338C8.51883 6.56338 8.40951 6.60866 8.32891 6.68926L7.81426 7.20391L7.3543 6.74258C7.72834 6.2383 7.93009 5.62701 7.9297 4.99916C7.92932 4.3713 7.72681 3.76026 7.35215 3.25645L8.51562 2.09199V2.38281C8.51562 2.49677 8.5609 2.60607 8.64148 2.68665C8.72206 2.76723 8.83135 2.8125 8.94531 2.8125C9.05927 2.8125 9.16856 2.76723 9.24915 2.68665C9.32973 2.60607 9.375 2.49677 9.375 2.38281V1.05469C9.375 0.940727 9.32973 0.831435 9.24915 0.750853C9.16856 0.67027 9.05927 0.625 8.94531 0.625ZM2.92969 5C2.92969 4.59053 3.05111 4.19026 3.2786 3.8498C3.50609 3.50934 3.82943 3.24398 4.20773 3.08728C4.58603 2.93058 5.0023 2.88958 5.4039 2.96947C5.8055 3.04935 6.17439 3.24653 6.46393 3.53607C6.75347 3.82561 6.95065 4.1945 7.03053 4.5961C7.11042 4.9977 7.06942 5.41397 6.91272 5.79227C6.75602 6.17057 6.49066 6.49391 6.1502 6.7214C5.80974 6.94889 5.40947 7.07031 5 7.07031C4.45111 7.06969 3.92488 6.85137 3.53675 6.46325C3.14863 6.07512 2.93031 5.54889 2.92969 5Z" fill="white"/>
</g>
<defs>
<clipPath id="clip0_756_14330">
<rect width="10" height="10" fill="white"/>
</clipPath>
</defs>
</svg>
