<svg width="512" height="512" viewBox="0 0 512 512" fill="none" xmlns="http://www.w3.org/2000/svg">
<rect width="512" height="512" rx="60" fill="white"/>
<path d="M255.374 125.067C224.499 98.8235 188.064 89.2409 161.563 103.819C123.993 124.48 120.591 185.855 153.962 240.91C175.895 277.11 208.276 301.559 238.553 308.189" stroke="#D20F34" stroke-width="10" stroke-linecap="round" stroke-linejoin="round"/>
<path d="M221.986 166.091C188.615 221.146 192.017 282.52 229.587 303.182C267.158 323.843 324.667 295.965 358.038 240.91C391.409 185.855 388.008 124.481 350.431 103.819C312.873 83.1579 255.357 111.036 221.986 166.091Z" stroke="#D20F34" stroke-width="10" stroke-linecap="round" stroke-linejoin="round"/>
<path d="M118.364 397.248H132.06V408H104.156V362.688H118.364V397.248ZM153.883 408.448C150.257 408.448 146.993 407.701 144.091 406.208C141.19 404.715 138.907 402.581 137.243 399.808C135.622 396.992 134.811 393.707 134.811 389.952C134.811 386.197 135.622 382.933 137.243 380.16C138.907 377.344 141.19 375.189 144.091 373.696C146.993 372.203 150.257 371.456 153.883 371.456C157.51 371.456 160.774 372.203 163.675 373.696C166.577 375.189 168.838 377.344 170.459 380.16C172.123 382.933 172.955 386.197 172.955 389.952C172.955 393.707 172.123 396.992 170.459 399.808C168.838 402.581 166.577 404.715 163.675 406.208C160.774 407.701 157.51 408.448 153.883 408.448ZM153.883 396.16C155.206 396.16 156.315 395.648 157.211 394.624C158.107 393.557 158.555 392 158.555 389.952C158.555 387.904 158.107 386.368 157.211 385.344C156.315 384.277 155.206 383.744 153.883 383.744C152.561 383.744 151.451 384.277 150.555 385.344C149.659 386.368 149.211 387.904 149.211 389.952C149.211 392 149.638 393.557 150.491 394.624C151.387 395.648 152.518 396.16 153.883 396.16ZM195.923 394.496L201.683 371.904H216.787L204.755 408H187.027L174.995 371.904H190.099L195.923 394.496ZM237.908 408.448C234.282 408.448 231.018 407.701 228.116 406.208C225.215 404.715 222.932 402.581 221.268 399.808C219.647 396.992 218.836 393.707 218.836 389.952C218.836 386.197 219.647 382.933 221.268 380.16C222.932 377.344 225.215 375.189 228.116 373.696C231.018 372.203 234.282 371.456 237.908 371.456C241.535 371.456 244.799 372.203 247.7 373.696C250.602 375.189 252.863 377.344 254.484 380.16C256.148 382.933 256.98 386.197 256.98 389.952C256.98 393.707 256.148 396.992 254.484 399.808C252.863 402.581 250.602 404.715 247.7 406.208C244.799 407.701 241.535 408.448 237.908 408.448ZM237.908 396.16C239.231 396.16 240.34 395.648 241.236 394.624C242.132 393.557 242.58 392 242.58 389.952C242.58 387.904 242.132 386.368 241.236 385.344C240.34 384.277 239.231 383.744 237.908 383.744C236.586 383.744 235.476 384.277 234.58 385.344C233.684 386.368 233.236 387.904 233.236 389.952C233.236 392 233.663 393.557 234.516 394.624C235.412 395.648 236.543 396.16 237.908 396.16ZM284.428 408L275.916 391.744H275.852V408H261.644V362.688H282.764C286.433 362.688 289.569 363.349 292.172 364.672C294.774 365.952 296.716 367.723 297.996 369.984C299.318 372.203 299.98 374.72 299.98 377.536C299.98 380.565 299.126 383.253 297.42 385.6C295.756 387.947 293.345 389.632 290.188 390.656L300.044 408H284.428ZM275.852 382.272H281.484C282.849 382.272 283.873 381.973 284.556 381.376C285.238 380.736 285.58 379.755 285.58 378.432C285.58 377.237 285.217 376.299 284.492 375.616C283.809 374.933 282.806 374.592 281.484 374.592H275.852V382.272ZM311.887 369.024C309.412 369.024 307.428 368.363 305.935 367.04C304.441 365.717 303.695 364.053 303.695 362.048C303.695 360 304.441 358.315 305.935 356.992C307.428 355.627 309.412 354.944 311.887 354.944C314.319 354.944 316.281 355.627 317.775 356.992C319.268 358.315 320.015 360 320.015 362.048C320.015 364.053 319.268 365.717 317.775 367.04C316.281 368.363 314.319 369.024 311.887 369.024ZM318.927 371.904V408H304.719V371.904H318.927ZM341.608 408.448C338.194 408.448 335.165 407.893 332.52 406.784C329.917 405.675 327.848 404.139 326.312 402.176C324.776 400.213 323.901 397.995 323.688 395.52H337.32C337.49 396.587 337.938 397.376 338.664 397.888C339.432 398.4 340.392 398.656 341.544 398.656C342.269 398.656 342.845 398.507 343.272 398.208C343.698 397.867 343.912 397.461 343.912 396.992C343.912 396.181 343.464 395.605 342.568 395.264C341.672 394.923 340.157 394.539 338.024 394.112C335.421 393.6 333.266 393.045 331.56 392.448C329.896 391.851 328.424 390.827 327.144 389.376C325.906 387.925 325.288 385.92 325.288 383.36C325.288 381.141 325.864 379.136 327.016 377.344C328.21 375.509 329.96 374.08 332.264 373.056C334.568 371.989 337.362 371.456 340.648 371.456C345.512 371.456 349.309 372.651 352.04 375.04C354.813 377.429 356.477 380.544 357.032 384.384H344.424C344.21 383.403 343.762 382.656 343.08 382.144C342.397 381.589 341.48 381.312 340.328 381.312C339.602 381.312 339.048 381.461 338.664 381.76C338.28 382.016 338.088 382.421 338.088 382.976C338.088 383.701 338.536 384.256 339.432 384.64C340.328 384.981 341.757 385.344 343.72 385.728C346.322 386.24 348.52 386.816 350.312 387.456C352.104 388.096 353.661 389.205 354.984 390.784C356.306 392.32 356.968 394.453 356.968 397.184C356.968 399.317 356.349 401.237 355.112 402.944C353.874 404.651 352.082 405.995 349.736 406.976C347.432 407.957 344.722 408.448 341.608 408.448ZM397.75 389.632C397.75 390.613 397.686 391.552 397.558 392.448H374.71C374.924 395.563 376.225 397.12 378.614 397.12C380.15 397.12 381.26 396.416 381.942 395.008H396.982C396.47 397.568 395.382 399.872 393.718 401.92C392.097 403.925 390.028 405.525 387.51 406.72C385.036 407.872 382.305 408.448 379.318 408.448C375.734 408.448 372.534 407.701 369.718 406.208C366.945 404.715 364.769 402.581 363.19 399.808C361.654 396.992 360.886 393.707 360.886 389.952C360.886 386.197 361.654 382.933 363.19 380.16C364.769 377.344 366.945 375.189 369.718 373.696C372.534 372.203 375.734 371.456 379.318 371.456C382.902 371.456 386.081 372.203 388.854 373.696C391.67 375.147 393.846 377.237 395.382 379.968C396.961 382.699 397.75 385.92 397.75 389.632ZM383.35 386.24C383.35 385.045 382.966 384.149 382.198 383.552C381.43 382.912 380.47 382.592 379.318 382.592C376.801 382.592 375.329 383.808 374.902 386.24H383.35Z" fill="#D20F34"/>
</svg>
