<svg width="25" height="25" viewBox="0 0 25 25" fill="none" xmlns="http://www.w3.org/2000/svg">
<path fill-rule="evenodd" clip-rule="evenodd" d="M6.5 3.91797C4.29086 3.91797 2.5 5.70883 2.5 7.91797V17.918C2.5 20.1271 4.29086 21.918 6.5 21.918H18.5C20.7091 21.918 22.5 20.1271 22.5 17.918V7.91797C22.5 5.70883 20.7091 3.91797 18.5 3.91797H6.5ZM6.91603 8.29389C6.57138 8.06412 6.10573 8.15725 5.87597 8.5019C5.6462 8.84655 5.73933 9.3122 6.08398 9.54196L9.86518 12.0628C11.4607 13.1264 13.5393 13.1264 15.1348 12.0628L18.916 9.54196C19.2607 9.3122 19.3538 8.84655 19.124 8.5019C18.8943 8.15725 18.4286 8.06412 18.084 8.29389L14.3028 10.8147C13.2111 11.5425 11.7889 11.5425 10.6972 10.8147L6.91603 8.29389Z" fill="#6A6A6A"/>
</svg>
