<svg width="26" height="25" viewBox="0 0 26 25" fill="none" xmlns="http://www.w3.org/2000/svg">
<g clip-path="url(#clip0_33_509)">
<path d="M11.1374 20.5154C10.8224 20.8101 10.3996 20.9714 9.96188 20.964C9.52417 20.9566 9.10742 20.781 8.80326 20.4759L1.50476 13.1513C1.2007 12.8461 1.03418 12.4363 1.04182 12.0121C1.04946 11.5879 1.23064 11.1841 1.5455 10.8893L9.10332 3.81604C9.4199 3.5299 9.83977 3.37571 10.2725 3.38667C10.7053 3.39764 11.1162 3.57289 11.417 3.87467C11.7177 4.17646 11.884 4.58063 11.8803 5.00015C11.8765 5.41966 11.7028 5.82095 11.3967 6.11758L6.84775 10.5101L22.5294 10.7754C22.9672 10.7828 23.3841 10.9584 23.6882 11.2637C23.9924 11.5689 24.159 11.9788 24.1513 12.4031C24.1437 12.8273 23.9624 13.2313 23.6475 13.5261C23.3325 13.8209 22.9096 13.9823 22.4718 13.9749L6.79012 13.7096L11.1781 18.2533C11.4822 18.5586 11.6487 18.9683 11.641 19.3925C11.6334 19.8167 11.4522 20.2206 11.1374 20.5154Z" fill="#667085"/>
</g>
<defs>
<clipPath id="clip0_33_509">
<rect width="24.7641" height="24.0002" fill="white" transform="matrix(-0.999857 -0.0169139 0.018008 -0.999838 24.7606 24.4152)"/>
</clipPath>
</defs>
</svg>
