<svg width="24" height="24" viewBox="0 0 24 24" fill="none" xmlns="http://www.w3.org/2000/svg">
<path d="M5.824 3.63201L12 9.80801L18.144 3.66401C18.2797 3.51956 18.4432 3.404 18.6247 3.32427C18.8061 3.24454 19.0018 3.20228 19.2 3.20001C19.6243 3.20001 20.0313 3.36858 20.3314 3.66864C20.6314 3.9687 20.8 4.37567 20.8 4.80001C20.8037 4.99618 20.7673 5.19103 20.693 5.37262C20.6188 5.55421 20.5081 5.71871 20.368 5.85601L14.144 12L20.368 18.224C20.6317 18.482 20.7863 18.8314 20.8 19.2C20.8 19.6244 20.6314 20.0313 20.3314 20.3314C20.0313 20.6314 19.6243 20.8 19.2 20.8C18.9961 20.8085 18.7926 20.7744 18.6026 20.7001C18.4125 20.6257 18.24 20.5126 18.096 20.368L12 14.192L5.84 20.352C5.70481 20.4916 5.5433 20.6031 5.3648 20.68C5.1863 20.7569 4.99434 20.7977 4.8 20.8C4.37565 20.8 3.96869 20.6314 3.66863 20.3314C3.36857 20.0313 3.2 19.6244 3.2 19.2C3.19627 19.0038 3.23266 18.809 3.30695 18.6274C3.38124 18.4458 3.49185 18.2813 3.632 18.144L9.856 12L3.632 5.77601C3.36829 5.51803 3.21366 5.16867 3.2 4.80001C3.2 4.37567 3.36857 3.9687 3.66863 3.66864C3.96869 3.36858 4.37565 3.20001 4.8 3.20001C5.184 3.20481 5.552 3.36001 5.824 3.63201Z" fill="#F33358"/>
</svg>
