<svg width="11" height="11" viewBox="0 0 11 11" fill="none" xmlns="http://www.w3.org/2000/svg">
<path d="M8.93772 1.59375H7.06272C6.9384 1.59375 6.81917 1.64314 6.73127 1.73104C6.64336 1.81895 6.59397 1.93818 6.59397 2.0625C6.59397 2.18682 6.64336 2.30605 6.73127 2.39396C6.81917 2.48186 6.9384 2.53125 7.06272 2.53125H7.80491L6.52678 3.81016C5.86234 3.31359 5.03449 3.0871 4.2098 3.17626C3.38511 3.26542 2.62479 3.66362 2.08184 4.29073C1.53889 4.91784 1.25359 5.72731 1.28337 6.55627C1.31314 7.38523 1.65577 8.17215 2.24231 8.7587C2.82885 9.34524 3.61577 9.68787 4.44473 9.71764C5.27369 9.74741 6.08317 9.46212 6.71027 8.91916C7.33738 8.37621 7.73558 7.61589 7.82474 6.7912C7.9139 5.96652 7.68741 5.13866 7.19085 4.47422L8.46897 3.19531V3.9375C8.46897 4.06182 8.51836 4.18105 8.60627 4.26896C8.69417 4.35686 8.8134 4.40625 8.93772 4.40625C9.06204 4.40625 9.18127 4.35686 9.26918 4.26896C9.35708 4.18105 9.40647 4.06182 9.40647 3.9375V2.0625C9.40647 1.93818 9.35708 1.81895 9.26918 1.73104C9.18127 1.64314 9.06204 1.59375 8.93772 1.59375ZM6.21936 8.09609C5.89154 8.42378 5.47393 8.6469 5.01931 8.73726C4.56469 8.82762 4.09349 8.78115 3.66528 8.60373C3.23707 8.42631 2.87109 8.1259 2.61359 7.7405C2.3561 7.35509 2.21867 6.90199 2.21867 6.43848C2.21867 5.97497 2.3561 5.52186 2.61359 5.13646C2.87109 4.75105 3.23707 4.45065 3.66528 4.27322C4.09349 4.0958 4.56469 4.04933 5.01931 4.13969C5.47393 4.23005 5.89154 4.45317 6.21936 4.78086C6.65815 5.22093 6.90455 5.81703 6.90455 6.43848C6.90455 7.05993 6.65815 7.65602 6.21936 8.09609Z" fill="white"/>
</svg>
