<svg width="24" height="25" viewBox="0 0 24 25" fill="none" xmlns="http://www.w3.org/2000/svg">
<path d="M12 12.0049C11.337 12.0049 10.7011 11.7415 10.2322 11.2726C9.76339 10.8038 9.5 10.1679 9.5 9.50488C9.5 8.84184 9.76339 8.20596 10.2322 7.73712C10.7011 7.26827 11.337 7.00488 12 7.00488C12.663 7.00488 13.2989 7.26827 13.7678 7.73712C14.2366 8.20596 14.5 8.84184 14.5 9.50488C14.5 9.83319 14.4353 10.1583 14.3097 10.4616C14.1841 10.7649 13.9999 11.0405 13.7678 11.2726C13.5356 11.5048 13.26 11.6889 12.9567 11.8146C12.6534 11.9402 12.3283 12.0049 12 12.0049ZM12 2.50488C10.1435 2.50488 8.36301 3.24238 7.05025 4.55514C5.7375 5.86789 5 7.64837 5 9.50488C5 14.7549 12 22.5049 12 22.5049C12 22.5049 19 14.7549 19 9.50488C19 7.64837 18.2625 5.86789 16.9497 4.55514C15.637 3.24238 13.8565 2.50488 12 2.50488Z" fill="#EAECF0"/>
</svg>
