<svg width="15" height="24" viewBox="0 0 15 24" fill="none" xmlns="http://www.w3.org/2000/svg">
<path d="M7.5 16.5C9.75937 16.5 11.5909 14.4853 11.5909 12V4.5C11.5909 2.01469 9.75937 0 7.5 0C5.24062 0 3.40909 2.01469 3.40909 4.5V12C3.40909 14.4853 5.24062 16.5 7.5 16.5ZM14.3182 9H13.6364C13.2597 9 12.9545 9.33562 12.9545 9.75V12C12.9545 15.5062 10.2064 18.3197 6.95497 17.9709C4.12117 17.6667 2.04545 14.8645 2.04545 11.7328V9.75C2.04545 9.33562 1.74034 9 1.36364 9H0.681818C0.305114 9 0 9.33562 0 9.75V11.6325C0 15.8344 2.72599 19.5802 6.47727 20.1492V21.75H4.09091C3.7142 21.75 3.40909 22.0856 3.40909 22.5V23.25C3.40909 23.6644 3.7142 24 4.09091 24H10.9091C11.2858 24 11.5909 23.6644 11.5909 23.25V22.5C11.5909 22.0856 11.2858 21.75 10.9091 21.75H8.52273V20.167C12.1751 19.6158 15 16.1672 15 12V9.75C15 9.33562 14.6949 9 14.3182 9Z" fill="white"/>
</svg>
