<svg width="20" height="24" viewBox="0 0 20 24" fill="none" xmlns="http://www.w3.org/2000/svg">
<path d="M17.5 12C17.5 12.846 17.359 13.6605 17.101 14.4195L15.88 13.1985C15.9601 12.8041 16.0003 12.4025 16 12V10.5C16 10.3011 16.079 10.1103 16.2197 9.96969C16.3603 9.82904 16.5511 9.75002 16.75 9.75002C16.9489 9.75002 17.1397 9.82904 17.2803 9.96969C17.421 10.1103 17.5 10.3011 17.5 10.5V12ZM10 18C11.227 18 12.367 17.6325 13.318 16.9995L14.395 18.078C13.3233 18.8528 12.0658 19.3304 10.75 19.4625V22.5H15.25C15.4489 22.5 15.6397 22.579 15.7803 22.7197C15.921 22.8603 16 23.0511 16 23.25C16 23.4489 15.921 23.6397 15.7803 23.7803C15.6397 23.921 15.4489 24 15.25 24H10H4.75C4.55109 24 4.36032 23.921 4.21967 23.7803C4.07902 23.6397 4 23.4489 4 23.25C4 23.0511 4.07902 22.8603 4.21967 22.7197C4.36032 22.579 4.55109 22.5 4.75 22.5H9.25V19.4625C7.40003 19.2766 5.68506 18.4101 4.43782 17.0312C3.19058 15.6523 2.49998 13.8593 2.5 12V10.5C2.5 10.3011 2.57902 10.1103 2.71967 9.96969C2.86032 9.82904 3.05109 9.75002 3.25 9.75002C3.44891 9.75002 3.63968 9.82904 3.78033 9.96969C3.92098 10.1103 4 10.3011 4 10.5V12C4 13.5913 4.63214 15.1174 5.75736 16.2427C6.88258 17.3679 8.4087 18 10 18ZM14.5 4.50002V11.8185L5.737 3.05552C6.08041 2.04638 6.7708 1.19185 7.68525 0.644068C8.5997 0.0962821 9.67888 -0.109215 10.7307 0.0641608C11.7824 0.237536 12.7386 0.778533 13.4288 1.59084C14.1191 2.40315 14.4986 3.43405 14.5 4.50002Z" fill="white"/>
<path d="M12.2292 15.9105L5.50024 9.17999V12C5.5 12.788 5.70668 13.5622 6.0996 14.2452C6.49252 14.9282 7.0579 15.4961 7.73918 15.892C8.42047 16.288 9.19378 16.4981 9.98175 16.5013C10.7697 16.5045 11.5447 16.3008 12.2292 15.9105ZM0.469238 2.03099L18.4692 20.031L19.5312 18.969L1.53124 0.968994L0.469238 2.03099Z" fill="white"/>
</svg>
