<svg width="38" height="38" viewBox="0 0 38 38" fill="none" xmlns="http://www.w3.org/2000/svg">
<path d="M27.9031 2.66309C21.3986 2.66309 19.0088 9.31012 19.0088 9.31012C19.0088 9.31012 16.6516 2.66309 10.1025 2.66309C5.18033 2.66309 -0.430611 6.56402 1.64158 15.4317C3.71376 24.2993 19.0266 35.3461 19.0266 35.3461C19.0266 35.3461 34.283 24.2993 36.3581 15.4317C38.4303 6.56402 33.2231 2.66309 27.9031 2.66309Z" fill="#F44336"/>
<path d="M9.09953 3.32512C14.2058 3.32512 16.7411 8.81434 17.5605 11.0379C17.6763 11.3556 18.1186 11.3645 18.2522 11.0557L19.0003 9.30715C17.9464 5.94059 15.0489 2.66309 10.103 2.66309C8.05453 2.66309 5.89031 3.33996 4.20703 4.76793C5.69438 3.79121 7.43703 3.32512 9.09953 3.32512ZM27.9036 2.66309C26.3331 2.66309 24.9022 3.00449 23.7859 3.69324C24.5697 3.39043 25.5405 3.32512 26.5023 3.32512C31.3147 3.32512 35.6223 6.97371 33.6778 15.4079C32.0094 22.6487 22.26 31.4332 19.2823 34.785C19.0923 34.9987 19.027 35.3431 19.027 35.3431C19.027 35.3431 34.2834 24.2964 36.3586 15.4287C38.4308 6.56402 33.2325 2.66309 27.9036 2.66309Z" fill="#CC3333"/>
<path d="M5.05871 7.36837C6.17199 5.97899 8.16106 4.83009 9.84731 6.15415C10.7587 6.86962 10.3609 8.33618 9.54449 8.95368C8.35699 9.85618 7.32387 10.3995 6.59949 11.8126C6.16606 12.6617 5.90481 13.5909 5.77121 14.5379C5.71777 14.912 5.22793 15.004 5.04387 14.6745C3.79106 12.4538 3.43481 9.39603 5.05871 7.36837ZM22.9068 10.2896C22.3843 10.2896 22.0162 9.78493 22.2062 9.29806C22.5595 8.40149 23.0167 7.53462 23.5659 6.76275C24.3793 5.62275 25.9261 4.95775 26.9057 5.64946C27.9092 6.35603 27.7786 7.76915 27.075 8.45196C25.5639 9.91556 23.6579 10.2896 22.9068 10.2896Z" fill="#FF8A80"/>
</svg>
