<svg width="30" height="32" viewBox="0 0 30 32" fill="none" xmlns="http://www.w3.org/2000/svg">
<g clip-path="url(#clip0_117_9829)">
<path d="M13.0395 16.3489C12.0691 15.227 11.0988 14.1057 10.1289 12.9851C8.42998 11.032 6.73079 9.08006 5.03132 7.12937C4.16698 6.1303 4.18187 4.72583 5.04787 3.72676C5.25387 3.48912 5.50186 3.29929 5.77692 3.16867C6.05198 3.03804 6.34844 2.96932 6.6485 2.96663C6.94856 2.96393 7.24603 3.02733 7.52303 3.153C7.80003 3.27867 8.05085 3.46403 8.26042 3.69793C10.819 6.59335 13.3748 9.49056 15.9279 12.3896C16.0395 12.5157 16.128 12.6752 16.2984 12.7454C16.3431 12.5698 16.2248 12.4662 16.1603 12.3508C14.5639 9.46083 12.9648 6.57233 11.363 3.68532C10.6028 2.30968 11.2546 0.643062 12.6864 0.271901C13.5416 0.0511869 14.4233 0.480003 14.9519 1.3989C16.1098 3.41956 17.2546 5.45284 18.42 7.4699C19.2471 8.89688 19.9957 10.3761 20.9072 11.74C21.4976 12.6283 22.2621 13.3623 23.1454 13.8886C23.7773 14.2661 24.1429 14.0598 24.2363 13.2832C24.4324 11.6662 24.6648 10.0581 25.1148 8.4969C25.6937 6.46993 27.6358 5.48977 29.4315 6.31768C29.8376 6.50506 29.9228 6.69424 29.8228 7.16C29.5548 8.40591 29.2041 9.6311 29.0535 10.9067C28.8642 12.5502 28.9004 14.2153 29.1611 15.8471C29.4871 17.8522 29.6715 19.8815 29.7127 21.9172C29.7384 23.8316 29.1768 25.482 27.951 26.8351C26.6954 28.2216 25.3951 29.5648 23.8716 30.6044C21.2521 32.3926 18.5705 32.4458 15.8485 30.8629C14.396 30.0179 13.1463 28.881 11.9453 27.6702C11.7633 27.4901 11.5706 27.3099 11.406 27.1126C9.97753 25.3685 8.09748 24.3505 6.25547 23.2541C4.53588 22.228 2.82538 21.1821 1.11241 20.1479C0.141363 19.5587 -0.173774 18.3561 0.355586 17.2759C0.86096 16.2435 1.95194 15.8607 2.93126 16.4012C5.25879 17.6858 7.5797 18.9867 9.90475 20.2749C10.0553 20.3578 10.1942 20.4858 10.406 20.4885C10.3233 20.3182 10.1909 20.2497 10.0809 20.1578C7.35031 17.8714 4.61418 15.5871 1.87254 13.3049C1.20008 12.7436 0.88908 12.0058 1.02059 11.0923C1.1488 10.2041 1.63349 9.60678 2.41595 9.3221C3.12728 9.06355 3.76417 9.24372 4.3688 9.71848C7.09886 11.8638 9.83472 14.0006 12.5764 16.1291C12.7104 16.2336 12.8493 16.3309 12.9858 16.4309L13.0478 16.4832L13.1239 16.4967L13.0925 16.4246L13.0395 16.3489ZM12.6442 1.44844C12.0296 1.79438 11.865 2.47544 12.2414 3.16011C13.4953 5.43032 14.7575 7.69602 16.0073 9.96893C16.425 10.7293 16.8973 11.4563 17.2364 12.2644C17.659 13.2706 16.9295 14.0661 16.1181 13.8859C15.8895 13.7816 15.6799 13.6333 15.4994 13.4481C15.1562 13.058 14.8088 12.6734 14.4647 12.2842C12.1537 9.66143 9.84216 7.04078 7.53007 4.42224C7.17358 4.01954 6.73521 3.93937 6.2563 4.15197C5.38616 4.45016 5.11321 5.65013 5.75423 6.38795C7.43826 8.32483 9.12422 10.2593 10.8121 12.1914C11.8286 13.3625 12.8493 14.522 13.8526 15.7048C14.1636 16.0706 14.3059 16.5156 14.0834 17.0093C13.8683 17.4885 13.5044 17.684 13.0197 17.6507C12.564 17.502 12.2091 17.1714 11.8328 16.8786C9.13083 14.7724 6.42889 12.6652 3.72695 10.5572C3.31339 10.2347 2.89982 10.1851 2.46723 10.4977C1.82456 10.9851 1.81216 11.8977 2.44573 12.4274C4.72915 14.3337 7.01339 16.2393 9.29846 18.1444C9.92791 18.6714 10.588 19.1579 11.1719 19.7452C11.4705 20.0461 11.6682 20.4128 11.5391 20.8866C11.4883 21.1066 11.3768 21.3042 11.2196 21.4529C11.0623 21.6016 10.867 21.6942 10.6599 21.7181C10.3621 21.6847 10.0733 21.588 9.80963 21.4335C9.10492 21.0371 8.39607 20.6497 7.6897 20.256C5.99355 19.3119 4.29684 18.3669 2.59958 17.421C2.1215 17.1552 1.81216 17.184 1.46394 17.5111C0.917206 18.0912 0.999915 18.8408 1.65665 19.2389C3.9726 20.6425 6.28856 22.0542 8.61112 23.4424C9.52923 23.9911 10.4184 24.5712 11.162 25.3874C11.5036 25.7622 11.8634 26.118 12.2182 26.4784C13.2529 27.5297 14.291 28.5774 15.4895 29.4107C16.1851 29.8945 16.9022 30.3386 17.7112 30.5683C17.8162 30.6098 17.9196 30.6584 18.0271 30.6927C19.8005 31.2035 21.4671 30.8846 23.0279 29.8819C24.6259 28.8576 25.9526 27.463 27.2529 26.0505C28.3157 24.8955 28.75 23.464 28.7218 21.8245C28.6879 19.829 28.4737 17.8606 28.1726 15.8958C27.8854 14.0644 27.8701 12.1948 28.1271 10.3581C28.2678 9.36714 28.5093 8.40411 28.7343 7.43657C28.7847 7.21675 28.7202 7.15009 28.544 7.12396C28.2372 7.07802 27.9311 7.05099 27.6342 7.17081C26.8509 7.3672 26.3497 7.90232 26.1015 8.71941C25.7376 9.91758 25.5291 11.1518 25.3571 12.3977C25.2851 12.9067 25.2744 13.4292 25.1214 13.9229C24.7963 14.9841 23.9146 15.4174 22.9758 14.9778C22.7773 14.8877 22.5871 14.7706 22.3968 14.667C21.3002 13.8949 20.3713 12.8718 19.6748 11.6689L15.8485 4.96456C15.2753 3.96189 14.7079 2.95561 14.1272 1.95924C13.7451 1.31602 13.181 1.13134 12.6442 1.44844Z" fill="#475C65"/>
<path d="M6.76339 30.0224C3.8486 29.808 1.59634 28.3747 0.127368 25.5505C0.111653 25.5216 0.0984172 25.491 0.0843561 25.4604C-0.0744519 25.1108 -0.0057977 24.7982 0.263018 24.6496C0.516945 24.5072 0.800649 24.6117 0.960284 24.9379C1.26137 25.5667 1.64444 26.1447 2.09758 26.654C3.39451 28.0882 4.96688 28.845 6.81799 28.9062C6.95203 28.9045 7.08603 28.9123 7.21914 28.9296C7.47389 28.9756 7.62608 29.1386 7.6327 29.4296C7.63932 29.7206 7.5169 29.9071 7.25967 29.9701C7.09528 29.9978 6.92959 30.0152 6.76339 30.0224Z" fill="#485D66"/>
<path d="M24.0515 7.0701C24.0474 7.38631 23.8638 7.62234 23.614 7.65387C23.3477 7.6863 23.1053 7.4737 23.0648 7.13947C22.9608 6.19081 22.6892 5.27305 22.2649 4.43685C21.4987 2.91419 20.259 1.73905 18.7687 1.12252C18.2956 0.921629 18.131 0.672087 18.2542 0.333358C18.3775 -0.00537135 18.6636 -0.0927568 19.1227 0.115345C21.9242 1.38738 23.5536 3.6675 24.0383 6.92506C24.0466 6.97731 24.0482 7.03407 24.0515 7.0701Z" fill="#485C66"/>
<path d="M21.6439 7.58255C21.6439 7.92579 21.4645 8.16182 21.194 8.19245C20.9235 8.22308 20.7068 8.01227 20.653 7.66634C20.5233 6.79889 20.1957 5.98081 19.7002 5.28712C19.2681 4.68253 18.7213 4.18658 18.0972 3.83311C17.7498 3.63221 17.6415 3.34573 17.7912 3.04574C17.9409 2.74575 18.2263 2.68539 18.5662 2.88359C20.2287 3.86104 21.2395 5.3664 21.6208 7.37806C21.6319 7.44572 21.6396 7.51398 21.6439 7.58255Z" fill="#485D66"/>
<path d="M6.76606 27.3165C5.3518 27.1477 4.04372 26.419 3.09032 25.2688C2.81108 24.9368 2.56693 24.5718 2.36245 24.1805C2.18379 23.8373 2.23507 23.522 2.49148 23.3571C2.74789 23.1922 3.02746 23.2832 3.21604 23.6274C4.05144 25.1432 5.27365 26.0156 6.88269 26.2444C7.20609 26.2904 7.39054 26.5147 7.374 26.8228C7.35746 27.1309 7.13827 27.3228 6.76606 27.3165Z" fill="#485C66"/>
<path d="M17.7135 30.5669C16.9046 30.3371 16.1875 29.893 15.4919 29.4092C14.2934 28.5759 13.2586 27.5282 12.2206 26.4769C11.8658 26.1165 11.506 25.7607 11.1644 25.3859C10.4199 24.5697 9.53161 23.9896 8.6135 23.4409C6.28928 22.0527 3.97581 20.641 1.65903 19.2375C1.00229 18.8393 0.919578 18.0897 1.46631 17.5096L6.75991 20.4329C6.88811 20.5041 7.00805 20.5942 7.13625 20.6644C8.02955 21.1545 8.91953 21.6509 9.82027 22.1248C10.2074 22.3284 10.5688 22.132 10.659 21.714C10.866 21.69 11.0614 21.5975 11.2186 21.4488C11.3758 21.3001 11.4874 21.1024 11.5382 20.8825C11.6689 20.4086 11.4696 20.0419 11.171 19.741C10.587 19.1537 9.93028 18.6672 9.29753 18.1402C7.01632 16.2309 4.73208 14.3253 2.4448 12.4232C1.81122 11.8935 1.82363 10.9818 2.4663 10.4936C4.14151 11.7914 5.81616 13.0896 7.49026 14.388C8.71193 15.3376 9.92366 16.3024 11.1495 17.2447C11.501 17.515 11.8161 17.8483 12.2206 18.0339C12.5978 18.2069 12.85 18.0798 13.0163 17.6465C13.4968 17.6798 13.8649 17.4844 14.08 17.0051C14.3025 16.5114 14.1627 16.0664 13.8492 15.7006C12.8459 14.5196 11.8252 13.3583 10.8087 12.1872C9.12411 10.2521 7.43815 8.31764 5.75082 6.38376C5.10979 5.64594 5.38275 4.44598 6.25288 4.14779C6.25288 4.2631 6.32898 4.32796 6.39267 4.40003C7.0006 5.0892 7.64162 5.74054 8.22806 6.45403C8.87487 7.24139 9.59116 7.95669 10.257 8.72694C11.4679 10.126 12.7251 11.4773 13.9625 12.8502C14.0452 12.9457 14.1205 13.0565 14.204 13.1547C14.5423 13.5484 14.8657 13.9655 15.2652 14.2844C15.6647 14.6033 16.0187 14.425 16.1147 13.8808C16.9261 14.0655 17.6556 13.2664 17.233 12.2593C16.8938 11.4485 16.4216 10.7278 16.0039 9.96384C14.7541 7.69093 13.4919 5.42523 12.238 3.15502C11.8616 2.47306 12.0262 1.792 12.6408 1.44336C12.7475 1.60732 12.8624 1.76677 12.96 1.93704C14.0121 3.77302 15.046 5.62252 16.1163 7.44499C17.1254 9.16296 17.9914 10.9845 19.1618 12.5845C19.7839 13.4584 20.5857 14.161 21.5026 14.6358C21.783 14.7781 22.0865 14.8376 22.386 14.6628C22.5795 14.7664 22.7697 14.8808 22.9649 14.9736C23.9037 15.4132 24.7846 14.9799 25.1105 13.9187C25.261 13.425 25.2759 12.9025 25.3462 12.3935C25.5216 11.1494 25.73 9.91339 26.0907 8.71523C26.3388 7.89813 26.84 7.36391 27.6233 7.16662C27.7118 7.22878 27.6936 7.30806 27.6696 7.40265C27.6035 7.6612 27.5571 7.92606 27.4893 8.18371C27.0088 10.0161 26.759 11.8773 26.8276 13.7881C26.8368 14.4257 26.8874 15.0618 26.979 15.6916C27.2613 17.4169 27.4607 19.157 27.5762 20.905C27.7044 22.7815 27.0625 24.3436 25.8864 25.6751C25.1146 26.549 24.2445 27.3048 23.405 28.1021C22.5306 28.9565 21.5219 29.6322 20.4273 30.0966C19.5606 30.4489 18.6379 30.6088 17.7135 30.5669Z" fill="#FFBF09"/>
<path d="M17.7139 30.5665C18.6412 30.6116 19.5674 30.4535 20.4376 30.1016C21.5322 29.6372 22.5409 28.9615 23.4152 28.1071C24.2506 27.3098 25.1208 26.554 25.8966 25.6801C27.0728 24.3486 27.7163 22.7865 27.5864 20.91C27.4709 19.1621 27.2716 17.4219 26.9893 15.6966C26.8977 15.0668 26.8471 14.4307 26.8379 13.7931C26.7692 11.8814 27.019 10.0211 27.4996 8.18874C27.5674 7.93109 27.6137 7.66624 27.6799 7.40768C27.7039 7.3176 27.7221 7.23382 27.6336 7.17165C27.9338 7.05184 28.2399 7.08157 28.5434 7.12481C28.7196 7.15093 28.7841 7.2149 28.7337 7.43741C28.5087 8.40495 28.2672 9.36889 28.1265 10.359C27.8695 12.1956 27.8849 14.0653 28.172 15.8966C28.4723 17.8596 28.6873 19.8299 28.7213 21.8253C28.7494 23.4649 28.3151 24.8964 27.2523 26.0513C25.952 27.4639 24.6253 28.8584 23.0273 29.8827C21.4665 30.8827 19.8015 31.2016 18.0265 30.6935C17.9223 30.6602 17.8189 30.6079 17.7139 30.5665Z" fill="#FFBF09"/>
<path d="M22.3897 14.668C22.0903 14.8428 21.7867 14.7833 21.5063 14.641C20.5894 14.1662 19.7876 13.4636 19.1656 12.5897C17.9952 10.9897 17.1292 9.16634 16.1201 7.45017C15.0498 5.6277 14.0159 3.7782 12.9638 1.94222C12.8662 1.77195 12.7512 1.6125 12.6445 1.44854C13.1813 1.13143 13.7454 1.31611 14.1201 1.96023C14.6991 2.9566 15.2682 3.96288 15.8414 4.96555L19.6677 11.6699C20.3642 12.8728 21.2931 13.8959 22.3897 14.668Z" fill="#FFBF09"/>
<path d="M16.1186 13.8827C16.0227 14.4232 15.6703 14.6034 15.2692 14.2863C14.868 13.9692 14.5463 13.5503 14.208 13.1566C14.1253 13.0584 14.0525 12.9476 13.9665 12.8521C12.7258 11.4792 11.4719 10.1279 10.2609 8.72881C9.59511 7.95856 8.87882 7.24326 8.23201 6.4559C7.64557 5.7424 7.00455 5.09107 6.39662 4.4019C6.33293 4.32893 6.25684 4.26497 6.25684 4.14965C6.73574 3.93975 7.17411 4.01993 7.53061 4.41992C9.84656 7.03486 12.1581 9.65431 14.4652 12.2783C14.8093 12.6674 15.1567 13.0521 15.5 13.4422C15.6802 13.6283 15.8898 13.7775 16.1186 13.8827Z" fill="#FFBF09"/>
<path d="M13.0197 17.6462C12.8543 18.0795 12.6012 18.2065 12.224 18.0336C11.8195 17.848 11.5044 17.5147 11.1529 17.2444C9.92709 16.3021 8.71452 15.3372 7.49368 14.3859C5.82124 13.0851 4.14659 11.7869 2.46973 10.4914C2.90231 10.1788 3.3167 10.2284 3.72944 10.5509C6.43138 12.6601 9.13332 14.7673 11.8353 16.8723C12.2091 17.1669 12.564 17.4975 13.0197 17.6462Z" fill="#FFBF09"/>
<path d="M10.6624 21.714C10.5722 22.132 10.2108 22.3284 9.82369 22.1248C8.92295 21.6509 8.03297 21.1546 7.13967 20.6645C7.01064 20.5942 6.89153 20.5041 6.76333 20.433L1.46973 17.5096C1.81795 17.1799 2.13143 17.1493 2.60537 17.4195C4.30263 18.3636 5.99934 19.3087 7.6955 20.2546C8.40187 20.6483 9.11071 21.0356 9.81542 21.432C10.0782 21.5851 10.3659 21.6809 10.6624 21.714Z" fill="#FFBF09"/>
<path d="M13.0401 16.3491L13.093 16.4275L13.0484 16.4861L12.9863 16.4338C13.0045 16.4059 13.0227 16.3779 13.0401 16.3491Z" fill="#FDFDFD"/>
<path d="M13.0925 16.4272L13.1239 16.4993L13.0479 16.4858L13.0925 16.4272Z" fill="#FDFDFD"/>
</g>
<defs>
<clipPath id="clip0_117_9829">
<rect width="29.8667" height="32" fill="white"/>
</clipPath>
</defs>
</svg>
