<svg width="36" height="37" viewBox="0 0 36 37" fill="none" xmlns="http://www.w3.org/2000/svg">
<path d="M2.25 17.3438C2.25 26.3047 9.28125 33.5312 18 33.5312C26.7188 33.5312 33.75 26.3047 33.75 17.3438C33.75 8.38281 26.7188 1.15625 18 1.15625C9.28125 1.15625 2.25 8.38281 2.25 17.3438Z" fill="#FFDD67"/>
<path d="M7.9878 6.93747C9.9003 5.78122 12.2065 5.60778 14.344 6.35934C14.6253 6.47497 15.0753 5.37653 14.7378 5.26091C12.319 4.33591 9.6753 4.56715 7.4253 5.89684C7.0878 6.07028 7.70655 7.1109 7.9878 6.93747ZM21.4878 8.67184C23.4003 7.51559 25.7065 7.34216 27.844 8.09372C28.1253 8.20934 28.5753 7.11091 28.2378 6.99528C25.819 6.07028 23.1753 6.30153 20.9253 7.63122C20.5878 7.80466 21.2065 8.78747 21.4878 8.67184Z" fill="#917524"/>
<path d="M13.5566 20.0611C16.4254 19.3096 19.5754 19.8299 21.9941 21.5643C22.6129 21.969 21.4879 23.5877 20.8691 23.1252C19.2379 22.0268 16.7066 21.2174 14.0629 21.9111C13.3879 22.0846 12.8254 20.2924 13.5566 20.0611Z" fill="#664E27"/>
<path d="M24.0752 16.8236C21.7689 16.8236 19.8564 14.858 19.8564 12.4877C19.8564 11.5049 20.1939 10.5799 20.7002 9.88613C21.6564 9.59707 22.7252 9.48145 23.8502 9.48145C25.2002 9.48145 26.4939 9.7127 27.6189 10.1174C28.0689 10.8111 28.3502 11.6205 28.3502 12.5455C28.2939 14.9158 26.4377 16.8236 24.0752 16.8236Z" fill="white"/>
<path d="M24.6375 9.48145C24.8625 9.82832 25.0312 10.233 25.0312 10.6955C25.0312 11.9096 24.075 12.8924 22.8938 12.8924C21.7125 12.8924 20.8125 11.9096 20.8125 10.7533C20.8125 10.4064 20.8688 10.1174 21.0375 9.82832C21.8813 9.59707 22.8375 9.48145 23.85 9.48145H24.6375Z" fill="#664E27"/>
<path d="M11.9248 16.8236C9.61856 16.8236 7.70605 14.858 7.70605 12.4877C7.70605 11.5049 8.04355 10.5799 8.5498 9.88613C9.50605 9.59707 10.5748 9.48145 11.6998 9.48145C13.0498 9.48145 14.3436 9.7127 15.4686 10.1174C15.9186 10.8111 16.1998 11.6205 16.1998 12.5455C16.1436 14.9158 14.2311 16.8236 11.9248 16.8236Z" fill="white"/>
<path d="M12.4877 9.48115C12.7127 9.82803 12.8814 10.2327 12.8814 10.6952C12.8814 11.9093 11.9252 12.8921 10.7439 12.8921C9.5627 12.8921 8.60645 11.9093 8.60645 10.6952C8.60645 10.3483 8.6627 10.0593 8.83145 9.77022C9.6752 9.53897 10.6314 9.42334 11.6439 9.42334C11.9814 9.48115 12.2064 9.48115 12.4877 9.48115Z" fill="#664E27"/>
<path d="M18.3378 25.4374C15.9753 26.0156 9.95657 26.7671 8.88782 25.6109C8.38157 25.0906 8.49407 24.339 8.66282 23.0093C8.83157 21.6796 7.59407 20.2921 6.69407 20.1765C5.62532 20.0609 5.00657 20.8703 5.40032 22.0265C6.18782 24.6281 4.61282 25.4374 4.50032 27.3453C4.44407 28.4437 4.10657 30.2937 5.73782 32.664C7.59407 35.3234 10.8003 35.3812 11.9253 35.3234C13.2191 35.2656 13.7816 35.2078 14.0628 34.6296C14.4003 33.9359 14.2316 33.7624 14.4003 33.5312C14.6816 33.0109 14.8503 33.0687 15.0191 32.4328C15.1878 31.7968 14.7378 31.3921 14.8503 31.1031C15.0753 30.4093 15.6378 30.5249 15.0753 28.9062C16.9878 28.6171 18.2253 28.3281 19.3503 27.6343C21.4316 26.4781 19.6316 25.1484 18.3378 25.4374Z" fill="white"/>
<path d="M9.84364 35.6701C7.93114 35.3232 6.35614 34.3404 5.34364 32.8951C3.76864 30.6404 3.88114 28.8482 3.99364 27.6342V27.2295C4.04989 26.4201 4.27489 25.7842 4.55614 25.1482C4.94989 24.2232 5.28739 23.4717 4.83739 22.0842C4.61239 21.3904 4.66864 20.6967 5.11864 20.2342C5.51239 19.8295 6.07489 19.5982 6.74989 19.7138H6.80614C7.98739 19.9451 9.33739 21.5638 9.16864 23.1248C8.99989 24.3967 8.94364 24.9748 9.28114 25.3217C9.33739 25.3795 9.50614 25.5529 10.1249 25.6107C12.2624 26.0154 16.4811 25.3795 18.2249 24.9748C18.5061 24.917 18.8436 24.917 19.1811 24.9748C20.0249 25.1482 20.6436 25.6685 20.8124 26.3045C20.8686 26.7092 20.8686 27.4607 19.6874 28.1545C18.5624 28.7904 17.3811 29.1373 15.7499 29.3685C16.1999 30.5248 15.1311 30.9295 15.3561 31.392C15.6374 32.0279 15.5811 32.5482 14.9624 33.1842C14.5124 33.5888 15.0749 34.1092 14.6249 34.9185C14.1186 35.7857 13.2749 35.8435 12.0374 35.9013C11.1936 35.8435 10.5186 35.8435 9.84364 35.6701ZM5.56864 21.506C5.96239 23.4138 6.07489 24.1076 5.39989 25.6685C4.38739 27.7498 3.99364 33.6467 10.0124 34.7451C13.6686 35.4388 14.2311 34.5138 14.0624 33.531C13.9499 32.8951 14.4561 32.6638 14.6249 32.4326C15.0186 31.7388 14.4561 31.392 14.4561 31.1029C14.4561 30.5826 14.9624 30.5826 15.0749 30.0623C15.2436 29.1373 14.1186 28.7904 15.0749 28.7326C16.9311 28.617 18.1686 28.2701 19.2374 27.5185C20.2499 26.8248 19.5186 25.3795 18.1686 25.6685C15.0186 26.3623 10.2936 27.1717 8.71864 25.6685C7.98739 24.9748 8.54989 24.1654 8.49364 22.6045C8.38114 20.5232 5.17489 19.7138 5.56864 21.506Z" fill="#CCCFD4"/>
</svg>
