<svg width="17" height="17" viewBox="0 0 17 17" fill="none" xmlns="http://www.w3.org/2000/svg">
<path d="M2.43115 7.86502C1.95957 7.86502 1.56097 7.69317 1.23536 7.34946C0.909182 7.00576 0.746094 6.58531 0.746094 6.08813C0.746094 5.59035 0.908901 5.16961 1.23451 4.82591C1.56013 4.48161 1.95844 4.30946 2.42946 4.30946C2.90104 4.30946 3.29964 4.48131 3.62525 4.82502C3.95143 5.16872 4.11451 5.58917 4.11451 6.08635C4.11451 6.58413 3.95171 7.00487 3.62609 7.34857C3.30048 7.69287 2.90216 7.86502 2.43115 7.86502ZM6.22062 4.30946C5.74904 4.30946 5.35044 4.13761 5.02483 3.79391C4.69865 3.4502 4.53557 3.02976 4.53557 2.53257C4.53557 2.0348 4.69837 1.61405 5.02399 1.27035C5.3496 0.926054 5.74792 0.753906 6.21894 0.753906C6.69051 0.753906 7.08911 0.925758 7.41473 1.26946C7.7409 1.61317 7.90399 2.03361 7.90399 2.5308C7.90399 3.02857 7.74118 3.44931 7.41557 3.79302C7.08995 4.13731 6.69164 4.30946 6.22062 4.30946ZM11.2733 4.30946C10.8017 4.30946 10.4031 4.13761 10.0775 3.79391C9.75129 3.4502 9.5882 3.02976 9.5882 2.53257C9.5882 2.0348 9.75101 1.61405 10.0766 1.27035C10.4022 0.926054 10.8005 0.753906 11.2716 0.753906C11.7431 0.753906 12.1417 0.925758 12.4674 1.26946C12.7935 1.61317 12.9566 2.03361 12.9566 2.5308C12.9566 3.02857 12.7938 3.44931 12.4682 3.79302C12.1426 4.13731 11.7443 4.30946 11.2733 4.30946ZM15.0627 7.86502C14.5911 7.86502 14.1925 7.69317 13.8669 7.34946C13.5408 7.00576 13.3777 6.58531 13.3777 6.08813C13.3777 5.59035 13.5405 5.16961 13.8661 4.82591C14.1917 4.48161 14.59 4.30946 15.061 4.30946C15.5326 4.30946 15.9312 4.48131 16.2568 4.82502C16.583 5.16872 16.7461 5.58917 16.7461 6.08635C16.7461 6.58413 16.5833 7.00487 16.2577 7.34857C15.9321 7.69287 15.5337 7.86502 15.0627 7.86502ZM4.24083 16.7539C3.71704 16.7539 3.28448 16.5423 2.94315 16.1192C2.60125 15.6961 2.4303 15.1966 2.4303 14.6206C2.4303 13.8958 2.67143 13.276 3.15367 12.761C3.63536 12.2455 4.10581 11.7234 4.56504 11.1948C4.97206 10.7243 5.32574 10.2215 5.62609 9.68635C5.92588 9.15124 6.27395 8.64665 6.6703 8.17257C6.94652 7.84428 7.25922 7.5628 7.60841 7.32813C7.9576 7.09346 8.33683 6.97613 8.74609 6.97613C9.16715 6.97613 9.55732 7.08872 9.91662 7.31391C10.2759 7.54028 10.5886 7.82324 10.8547 8.1628C11.2477 8.63687 11.5924 9.14205 11.8888 9.67835C12.1853 10.2152 12.5314 10.7207 12.9271 11.1948C13.3864 11.7234 13.8568 12.2455 14.3385 12.761C14.8208 13.276 15.0619 13.8958 15.0619 14.6206C15.0619 15.1966 14.8909 15.6961 14.549 16.1192C14.2077 16.5423 13.7751 16.7539 13.2514 16.7539C12.4935 16.7539 11.7426 16.6872 10.9987 16.5539C10.2549 16.4206 9.50399 16.3539 8.74609 16.3539C7.9882 16.3539 7.23732 16.4206 6.49346 16.5539C5.7496 16.6872 4.99873 16.7539 4.24083 16.7539Z" fill="#475467"/>
</svg>
