<svg width="20" height="20" viewBox="0 0 20 20" fill="none" xmlns="http://www.w3.org/2000/svg">
<path d="M14.9592 12.3589L14.5379 12.803C14.5379 12.803 13.5351 13.8579 10.799 10.9775C8.06291 8.09711 9.06568 7.0422 9.06568 7.0422L9.33049 6.76181C9.98512 6.07357 10.0472 4.96767 9.47586 4.15982L8.3092 2.50981C7.6018 1.5098 6.23607 1.37745 5.42589 2.2304L3.9722 3.75982C3.57127 4.18335 3.30276 4.73042 3.33516 5.33826C3.4185 6.89416 4.08331 10.2403 7.79069 14.1442C11.7231 18.2835 15.4129 18.4482 16.9212 18.2992C17.399 18.2521 17.8138 17.9952 18.148 17.6423L19.4628 16.258C20.3517 15.3236 20.1017 13.7207 18.9647 13.0668L17.1962 12.0481C16.4499 11.6197 15.5425 11.7452 14.9592 12.3589Z" fill="#F33358"/>
</svg>
