<svg width="24" height="25" viewBox="0 0 24 25" fill="none" xmlns="http://www.w3.org/2000/svg">
<path d="M3.414 14.2831L2 15.6971L6.949 17.8181L9.071 22.7681L10.485 21.3541L9.778 17.8181L13.091 14.5051L16.701 22.2091L18.04 20.8701L16.85 10.7471L19.678 7.91807C19.869 7.73358 20.0214 7.51289 20.1262 7.26888C20.231 7.02487 20.2862 6.76243 20.2885 6.49687C20.2908 6.23131 20.2402 5.96795 20.1396 5.72216C20.0391 5.47637 19.8906 5.25306 19.7028 5.06528C19.515 4.87749 19.2917 4.72899 19.0459 4.62843C18.8001 4.52786 18.5368 4.47726 18.2712 4.47957C18.0056 4.48188 17.7432 4.53705 17.4992 4.64187C17.2552 4.74668 17.0345 4.89905 16.85 5.09007L13.947 7.99307L3.824 6.80207L2.559 8.06807L10.203 11.7381L6.95 14.9911L3.414 14.2831Z" fill="#EAECF0"/>
</svg>
