<svg width="17" height="17" viewBox="0 0 17 17" fill="none" xmlns="http://www.w3.org/2000/svg">
<path d="M2.34609 16.7539C1.90609 16.7539 1.52956 16.5891 1.21649 16.2596C0.903427 15.93 0.746627 15.5334 0.746094 15.0697V5.80654C0.746094 5.34338 0.902894 4.94703 1.21649 4.61748C1.53009 4.28794 1.90663 4.12289 2.34609 4.12233H5.54609V2.43812C5.54609 1.97496 5.70289 1.57861 6.01649 1.24906C6.33009 0.91952 6.70663 0.754468 7.14609 0.753906H10.3461C10.7861 0.753906 11.1629 0.918959 11.4765 1.24906C11.7901 1.57917 11.9466 1.97552 11.9461 2.43812V4.12233H15.1461C15.5861 4.12233 15.9629 4.28738 16.2765 4.61748C16.5901 4.94759 16.7466 5.34394 16.7461 5.80654V15.0697C16.7461 15.5329 16.5896 15.9295 16.2765 16.2596C15.9634 16.5897 15.5866 16.7545 15.1461 16.7539H2.34609ZM2.34609 15.0697H15.1461V5.80654H2.34609V15.0697ZM7.14609 4.12233H10.3461V2.43812H7.14609V4.12233Z" fill="#475467"/>
</svg>
