<svg width="19" height="18" viewBox="0 0 19 18" fill="none" xmlns="http://www.w3.org/2000/svg">
<path d="M1.89522 0H17.4766C17.7349 0 17.9826 0.105357 18.1652 0.292893C18.3479 0.48043 18.4505 0.734784 18.4505 1V17C18.4505 17.2652 18.3479 17.5196 18.1652 17.7071C17.9826 17.8946 17.7349 18 17.4766 18H1.89522C1.63695 18 1.38925 17.8946 1.20662 17.7071C1.02399 17.5196 0.921387 17.2652 0.921387 17V1C0.921387 0.734784 1.02399 0.48043 1.20662 0.292893C1.38925 0.105357 1.63695 0 1.89522 0ZM8.71501 13L15.6 5.929L14.224 4.515L8.71501 10.172L5.96002 7.343L4.58301 8.757L8.71501 13Z" fill="#F33358"/>
</svg>
