<svg width="17" height="17" viewBox="0 0 17 17" fill="none" xmlns="http://www.w3.org/2000/svg">
<path d="M8.98609 0.755H8.74609C7.69552 0.755 6.65523 0.961912 5.68463 1.36392C4.71402 1.76593 3.83211 2.35517 3.08924 3.09799C1.58895 4.59817 0.746094 6.63287 0.746094 8.75445C0.746094 10.876 1.58895 12.9107 3.08924 14.4109C3.83211 15.1537 4.71402 15.743 5.68463 16.145C6.65523 16.547 7.69552 16.7539 8.74609 16.7539C11.1461 16.7539 12.5061 15.954 13.9461 14.754C9.54609 15.954 5.54609 12.7542 5.54609 8.75445C5.54609 4.75473 9.54609 1.55495 13.9461 2.75486C13.2958 2.10585 12.5215 1.59433 11.6694 1.25075C10.8173 0.90718 9.90473 0.738582 8.98609 0.755ZM12.5861 4.11477L11.3861 6.91458L8.42609 7.15456L10.7461 9.15442L10.0261 11.9542L12.5861 10.3543L15.1461 11.9542L14.3461 9.15442L16.7461 7.15456L13.7861 6.91458L12.5861 4.11477Z" fill="#475467"/>
</svg>
