<svg width="29" height="29" viewBox="0 0 29 29" fill="none" xmlns="http://www.w3.org/2000/svg">
<path d="M14.5 26.5833C7.82637 26.5833 2.41666 21.1736 2.41666 14.5C2.41666 7.82636 7.82637 2.41666 14.5 2.41666C21.1736 2.41666 26.5833 7.82636 26.5833 14.5C26.5833 21.1736 21.1736 26.5833 14.5 26.5833ZM14.5 24.1667C17.0638 24.1667 19.5225 23.1482 21.3354 21.3354C23.1482 19.5225 24.1667 17.0637 24.1667 14.5C24.1667 11.9362 23.1482 9.47748 21.3354 7.66462C19.5225 5.85177 17.0638 4.83332 14.5 4.83332C11.9362 4.83332 9.47748 5.85177 7.66463 7.66462C5.85178 9.47748 4.83333 11.9362 4.83333 14.5C4.83333 17.0637 5.85178 19.5225 7.66463 21.3354C9.47748 23.1482 11.9362 24.1667 14.5 24.1667ZM13.2917 18.125H15.7083V20.5417H13.2917V18.125ZM15.7083 16.1373V16.9167H13.2917V15.1042C13.2917 14.7837 13.419 14.4763 13.6456 14.2497C13.8722 14.0231 14.1795 13.8958 14.5 13.8958C14.8433 13.8958 15.1795 13.7983 15.4695 13.6147C15.7595 13.4311 15.9914 13.1688 16.1382 12.8586C16.285 12.5483 16.3407 12.2027 16.2988 11.862C16.2569 11.5213 16.1191 11.1995 15.9015 10.9341C15.6838 10.6687 15.3953 10.4705 15.0694 10.3626C14.7435 10.2548 14.3937 10.2417 14.0607 10.3248C13.7276 10.408 13.4251 10.5841 13.1882 10.8325C12.9513 11.0809 12.7898 11.3915 12.7225 11.7281L10.3518 11.2532C10.4988 10.5186 10.8382 9.83627 11.3353 9.27586C11.8324 8.71546 12.4694 8.29711 13.1812 8.06358C13.893 7.83006 14.654 7.78973 15.3865 7.94673C16.119 8.10373 16.7967 8.45242 17.3502 8.95715C17.9038 9.46189 18.3134 10.1046 18.5372 10.8195C18.7609 11.5344 18.7909 12.2959 18.6239 13.0262C18.4569 13.7565 18.099 14.4293 17.5867 14.9759C17.0745 15.5225 16.4262 15.9233 15.7083 16.1373Z" fill="#F33358"/>
</svg>
