<svg width="20" height="20" viewBox="0 0 20 20" fill="none" xmlns="http://www.w3.org/2000/svg">
<g clip-path="url(#clip0_171_1388)">
<path d="M10.8147 10.1973L3.28344 11.4525C3.10705 11.4819 2.95979 11.6032 2.89723 11.7708L0.299335 18.7282C0.0506615 19.3676 0.720085 19.9777 1.33375 19.6708L19.3337 10.6708C19.8865 10.3944 19.8865 9.60557 19.3337 9.32918L1.33375 0.329181C0.720085 0.0223491 0.0506615 0.632391 0.299335 1.27184L2.89723 8.22923C2.95979 8.39675 3.10705 8.51812 3.28344 8.54752L10.8147 9.80272C10.9236 9.82088 10.9972 9.92393 10.9791 10.0329C10.965 10.1172 10.899 10.1832 10.8147 10.1973Z" fill="white"/>
</g>
<defs>
<clipPath id="clip0_171_1388">
<rect width="20" height="20" fill="white"/>
</clipPath>
</defs>
</svg>
