<svg width="17" height="17" viewBox="0 0 17 17" fill="none" xmlns="http://www.w3.org/2000/svg">
<path d="M0.746094 10.6001V16.7539H12.7314V10.6001H0.746094ZM11.6165 15.1129H1.861V12.2411H11.6165V15.1129ZM13.5676 10.6001H14.6825V16.7539H13.5676V10.6001ZM15.5186 10.6001H16.6336V16.7539H15.5186V10.6001ZM13.6173 7.17955C13.4837 6.88275 13.4193 6.52999 13.4338 6.17457C13.4484 5.81915 13.5412 5.48036 13.6981 5.20939C14.0226 4.65399 14.2109 3.95431 14.2329 3.22255C14.2548 2.4908 14.1092 1.76938 13.8194 1.17401L13.6155 0.753906H12.3412L12.2777 0.820573L12.9121 2.12775C13.0567 2.42483 13.1294 2.78481 13.1184 3.14994C13.1075 3.51508 13.0135 3.86421 12.8516 4.14134C12.5371 4.68441 12.3512 5.36336 12.322 6.07565C12.2928 6.78794 12.4218 7.49488 12.6896 8.0897L12.8976 8.54878H14.2375L13.6173 7.17955ZM16.1259 7.17955C15.9922 6.88275 15.9278 6.52999 15.9424 6.17457C15.957 5.81915 16.0497 5.48036 16.2067 5.20939C16.5311 4.65399 16.7194 3.95431 16.7414 3.22255C16.7634 2.4908 16.6178 1.76938 16.3279 1.17401L16.1241 0.753906H14.8497L14.7863 0.820573L15.4206 2.12775C15.5653 2.42483 15.638 2.78481 15.627 3.14994C15.616 3.51508 15.522 3.86421 15.3602 4.14134C15.0457 4.68441 14.8598 5.36336 14.8305 6.07565C14.8013 6.78794 14.9304 7.49488 15.1982 8.0897L15.4061 8.54878H16.7461L16.1259 7.17955Z" fill="#475467"/>
</svg>
