<svg width="28" height="27" viewBox="0 0 28 27" fill="none" xmlns="http://www.w3.org/2000/svg">
<path fill-rule="evenodd" clip-rule="evenodd" d="M16.6588 2.421C16.2272 2.25 15.6788 2.25 14.5833 2.25C13.4878 2.25 12.9407 2.25 12.5078 2.421C11.9332 2.64849 11.4758 3.08674 11.2362 3.63937C11.1265 3.89025 11.0845 4.18388 11.067 4.61025C11.0592 4.91918 10.9699 5.22109 10.8074 5.48743C10.6449 5.75378 10.4146 5.97576 10.1383 6.13238C9.85687 6.28324 9.54047 6.36316 9.21845 6.36474C8.89643 6.36631 8.5792 6.28948 8.29617 6.14138C7.90184 5.94113 7.616 5.83087 7.33367 5.79488C6.71598 5.71667 6.09125 5.87677 5.59534 6.24038C5.22434 6.51262 4.95017 6.96712 4.403 7.875C3.85467 8.78288 3.58167 9.23625 3.51984 9.68062C3.43817 10.2724 3.60617 10.8709 3.9865 11.3445C4.15917 11.5605 4.403 11.7416 4.77984 11.9689C5.33634 12.303 5.69334 12.8722 5.69334 13.5C5.69334 14.1278 5.33634 14.697 4.781 15.03C4.403 15.2584 4.15917 15.4395 3.98534 15.6555C3.7976 15.8894 3.6598 16.1569 3.5799 16.4425C3.5 16.7281 3.47959 17.0261 3.51984 17.3194C3.58167 17.7626 3.85467 18.2171 4.403 19.125C4.95134 20.0329 5.22434 20.4862 5.59534 20.7596C6.09 21.123 6.71534 21.2828 7.33367 21.2051C7.616 21.1691 7.90184 21.0589 8.29617 20.8586C8.57935 20.7103 8.89679 20.6334 9.21903 20.635C9.54128 20.6365 9.85789 20.7166 10.1395 20.8676C10.7065 21.1826 11.0425 21.762 11.067 22.3898C11.0845 22.8173 11.1265 23.1097 11.2362 23.3606C11.4742 23.9119 11.9315 24.3506 12.5078 24.579C12.9395 24.75 13.4878 24.75 14.5833 24.75C15.6788 24.75 16.2272 24.75 16.6588 24.579C17.2335 24.3515 17.6909 23.9133 17.9305 23.3606C18.0402 23.1097 18.0822 22.8173 18.0997 22.3898C18.123 21.762 18.4602 21.1815 19.0283 20.8676C19.3098 20.7168 19.6262 20.6368 19.9482 20.6353C20.2702 20.6337 20.5875 20.7105 20.8705 20.8586C21.2648 21.0589 21.5507 21.1691 21.833 21.2051C22.4513 21.2839 23.0767 21.123 23.5713 20.7596C23.9423 20.4874 24.2165 20.0329 24.7637 19.125C25.312 18.2171 25.585 17.7638 25.6468 17.3194C25.6869 17.0261 25.6663 16.728 25.5862 16.4424C25.5061 16.1568 25.3681 15.8893 25.1802 15.6555C25.0075 15.4395 24.7637 15.2584 24.3868 15.0311C23.8303 14.697 23.4733 14.1278 23.4733 13.5C23.4733 12.8722 23.8303 12.303 24.3857 11.97C24.7637 11.7416 25.0075 11.5605 25.1813 11.3445C25.3691 11.1106 25.5069 10.8431 25.5868 10.5575C25.6667 10.2719 25.6871 9.97387 25.6468 9.68062C25.585 9.23737 25.312 8.78288 24.7637 7.875C24.2153 6.96712 23.9423 6.51375 23.5713 6.24038C23.0754 5.87677 22.4507 5.71667 21.833 5.79488C21.5507 5.83087 21.2648 5.94113 20.8705 6.14138C20.5873 6.28968 20.2699 6.36662 19.9476 6.36505C19.6254 6.36347 19.3088 6.28344 19.0272 6.13238C18.7511 5.97562 18.5211 5.75358 18.3588 5.48725C18.1965 5.22091 18.1073 4.91907 18.0997 4.61025C18.0822 4.18275 18.0402 3.89025 17.9305 3.63937C17.8119 3.3657 17.6386 3.11724 17.4204 2.90819C17.2022 2.69914 16.9434 2.53359 16.6588 2.421ZM14.5833 16.875C16.5317 16.875 18.1102 15.3641 18.1102 13.5C18.1102 11.6359 16.5305 10.125 14.5833 10.125C12.635 10.125 11.0565 11.6359 11.0565 13.5C11.0565 15.3641 12.6362 16.875 14.5833 16.875Z" fill="#98A2B3"/>
</svg>
