<svg width="24" height="24" viewBox="0 0 24 24" fill="none" xmlns="http://www.w3.org/2000/svg">
<path d="M2.00141 12.038C2.00141 9.85637 2.00141 7.67424 2.00141 5.49158C2.00141 3.78001 3.1317 2.39636 4.80467 2.06103C5.02533 2.01879 5.24962 1.99842 5.47427 2.0002C9.83748 1.99668 14.2009 1.99668 18.5644 2.0002C20.4987 2.0002 21.9939 3.49756 21.9971 5.43393C22.001 7.62928 22.001 9.82464 21.9971 12.02C21.9977 14.3891 21.1547 16.6809 19.6193 18.485C18.0838 20.2892 15.9562 21.4876 13.6175 21.8658C13.0889 21.9495 12.5547 21.9921 12.0196 21.9932C9.81139 22.0075 7.60316 22.0012 5.39494 21.9985C3.7352 21.9985 2.38752 20.8968 2.06277 19.2741C2.02095 19.04 2.00182 18.8025 2.00564 18.5648C2 16.3895 1.99859 14.2139 2.00141 12.038ZM20.6621 13.2651C20.6854 12.807 20.7245 12.3786 20.7261 11.9502C20.7325 9.79925 20.7333 7.64973 20.7288 5.50163C20.7288 4.17934 19.8217 3.26854 18.5015 3.26749C17.0466 3.26749 15.5917 3.26749 14.1369 3.26749C11.2539 3.26749 8.3708 3.26749 5.4875 3.26749C4.24137 3.26749 3.27557 4.2042 3.27398 5.43234C3.26728 9.84385 3.26728 14.2555 3.27398 18.6674C3.27321 18.938 3.32598 19.2061 3.42924 19.4562C3.53249 19.7063 3.68421 19.9335 3.87564 20.1247C4.06707 20.316 4.29444 20.4675 4.54466 20.5705C4.79488 20.6735 5.063 20.7259 5.33358 20.7249C7.64812 20.7334 9.96266 20.7323 12.2772 20.7217C12.6035 20.7217 12.9299 20.6731 13.2567 20.6471V18.1914C13.1954 18.1946 13.1436 18.1914 13.0928 18.2004C11.5134 18.4315 10.0145 18.1845 8.597 17.4414C7.96418 17.1074 7.38567 16.6794 6.88119 16.172C6.77817 16.0768 6.71011 15.9497 6.68796 15.8112C6.6658 15.6727 6.69082 15.5308 6.75901 15.4082C6.8205 15.2854 6.92253 15.1877 7.04784 15.1315C7.17314 15.0753 7.31401 15.0641 7.4466 15.0999C7.60137 15.1524 7.74198 15.2398 7.85757 15.3553C9.01537 16.4364 10.381 17.0008 11.9657 17.0061C12.3967 17.0061 12.8278 16.9463 13.2351 16.9156C13.2679 16.5613 13.2694 16.2608 13.3276 15.9721C13.6492 14.3747 14.981 13.2783 16.6138 13.2666C17.8705 13.2571 19.1267 13.2666 20.3834 13.264L20.6621 13.2651ZM20.3299 14.5345H20.1364C18.9923 14.5345 17.8488 14.5345 16.7053 14.5345C15.4216 14.5376 14.5394 15.422 14.5367 16.703C14.5367 17.8469 14.5367 18.9909 14.5367 20.1352C14.5367 20.1986 14.542 20.2616 14.5452 20.3266C16.7788 20.0156 20.0417 16.7506 20.3299 14.535V14.5345Z" fill="white"/>
<path d="M5.61903 10.9029C5.61903 10.6574 5.61268 10.4118 5.61903 10.1662C5.6191 10.0669 5.63895 9.96851 5.67742 9.8769C5.71588 9.7853 5.7722 9.70226 5.84309 9.63263C5.91397 9.563 5.99801 9.50816 6.09031 9.47133C6.1826 9.4345 6.28131 9.41639 6.38067 9.41808C6.48006 9.41689 6.57869 9.43552 6.6708 9.47287C6.76291 9.51021 6.84666 9.56553 6.91715 9.63559C6.98764 9.70565 7.04346 9.78905 7.08136 9.88092C7.11925 9.97279 7.13846 10.0713 7.13787 10.1707C7.14675 10.6626 7.14675 11.1542 7.13787 11.6454C7.13797 11.7448 7.11824 11.8432 7.07984 11.935C7.04144 12.0267 6.98514 12.1098 6.91423 12.1795C6.84331 12.2493 6.75921 12.3041 6.66684 12.341C6.57446 12.3778 6.47567 12.3959 6.37623 12.3941C6.27693 12.3945 6.17855 12.3752 6.0867 12.3375C5.99486 12.2998 5.91135 12.2443 5.84096 12.1743C5.77057 12.1043 5.71469 12.0211 5.6765 11.9294C5.6383 11.8378 5.61856 11.7395 5.6184 11.6403C5.61332 11.3947 5.61903 11.1491 5.61903 10.9029Z" fill="white"/>
<path d="M16.8551 10.8981C16.8551 10.6525 16.8494 10.4063 16.8551 10.1607C16.8558 10.0614 16.8763 9.96326 16.9153 9.87194C16.9544 9.78063 17.0112 9.69799 17.0825 9.62884C17.1538 9.55969 17.2381 9.5054 17.3306 9.46915C17.4231 9.4329 17.5219 9.4154 17.6212 9.41768C17.8178 9.41664 18.0069 9.49301 18.1477 9.63028C18.2884 9.76755 18.3694 9.95468 18.3733 10.1512C18.3843 10.6508 18.3843 11.1502 18.3733 11.6494C18.373 11.7488 18.3528 11.8472 18.314 11.9387C18.2751 12.0303 18.2184 12.1131 18.1471 12.1825C18.0758 12.2518 17.9914 12.3062 17.8988 12.3425C17.8062 12.3787 17.7073 12.3962 17.6078 12.3937C17.4077 12.3925 17.2162 12.3121 17.0753 12.1699C16.9344 12.0278 16.8557 11.8355 16.8563 11.6354C16.85 11.3899 16.8551 11.1437 16.8551 10.8981Z" fill="white"/>
</svg>
