<svg width="27" height="31" viewBox="0 0 27 31" fill="none" xmlns="http://www.w3.org/2000/svg">
<path d="M12.4222 0H14.4736C14.4984 0.0829751 14.5686 0.0520866 14.623 0.0605658C15.4418 0.14216 16.2498 0.309841 17.0336 0.560839C19.0995 1.24584 20.8547 2.4087 22.2732 4.06881C23.876 5.94635 24.7968 8.12672 25.0139 10.579C25.2472 13.21 24.6444 15.6575 23.2151 17.8857C23.1075 18.0528 23.1075 18.171 23.1952 18.3466C24.4068 20.7616 25.6126 23.1791 26.8126 25.5993C26.9251 25.8253 27.0345 26.0518 26.9897 26.3177C26.9045 26.8313 26.546 27.1117 25.951 27.1129C24.6348 27.1129 23.3185 27.1208 22.0023 27.1074C21.7713 27.1074 21.6425 27.1837 21.5113 27.3618C20.7544 28.3914 19.9823 29.4095 19.2229 30.4379C19.0342 30.6929 18.8251 30.9067 18.5149 31H18.0917C17.7156 30.8086 17.5167 30.4761 17.3353 30.1091C16.2784 27.9657 15.1998 25.8325 14.1508 23.6849C13.9815 23.3372 13.8128 23.1549 13.398 23.2003C13.1665 23.2252 13.054 23.2767 12.9494 23.4874C11.8406 25.7344 10.7117 27.9753 9.60349 30.2278C9.42211 30.5912 9.20566 30.8807 8.8048 30.9976H8.38157C8.05508 30.8068 7.83741 30.5131 7.61552 30.2163C6.90389 29.2521 6.18138 28.2969 5.47156 27.3315C5.42463 27.257 5.35828 27.1966 5.27965 27.157C5.20102 27.1174 5.11311 27.1001 5.02536 27.1068C3.69824 27.1165 2.37111 27.1135 1.04459 27.1105C0.481088 27.1105 0.118925 26.8422 0.0167456 26.3703C-0.0437157 26.0821 0.0699525 25.8362 0.19148 25.5921C1.37833 23.2082 2.56035 20.8219 3.7587 18.4453C3.89111 18.1831 3.86632 18.0129 3.72242 17.773C1.54581 14.1439 1.29006 10.3701 3.12446 6.55928C4.84519 2.98589 7.74551 0.873358 11.6495 0.164133C11.9071 0.115075 12.1828 0.139907 12.4222 0ZM13.502 1.81697C8.14093 1.81697 3.73451 6.23828 3.74177 11.6135C3.74902 16.9978 8.17358 21.4252 13.5135 21.3943C18.8988 21.3622 23.2557 17.0123 23.2478 11.6171C23.2442 6.18801 18.9103 1.85452 13.502 1.81697ZM8.49402 28.3605C8.54844 28.2612 8.58411 28.2019 8.61495 28.1407C9.42997 26.5054 10.2383 24.8659 11.0636 23.2349C11.1767 23.012 11.1392 22.9617 10.9149 22.9102C8.77033 22.4166 6.91961 21.3822 5.3585 19.828C5.214 19.6845 5.15777 19.6724 5.05619 19.8747C4.20974 21.5955 3.35522 23.3116 2.49264 25.0228C2.38562 25.2353 2.37957 25.3032 2.65407 25.2989C3.61843 25.2844 4.58339 25.3068 5.54714 25.2874C6.00241 25.2783 6.32649 25.4413 6.59312 25.8095C7.20741 26.6605 7.84346 27.4908 8.49402 28.3605ZM18.4798 28.3303C18.5971 28.2873 18.6352 28.1861 18.6938 28.1086C19.2501 27.3691 19.8202 26.6387 20.3517 25.881C20.654 25.4485 21.0228 25.2717 21.5464 25.2868C22.4902 25.3147 23.4352 25.2959 24.3796 25.2923C24.451 25.2923 24.538 25.3341 24.6094 25.2372L21.8082 19.6173C21.6873 19.7578 21.6111 19.865 21.5174 19.9558C20.0641 21.3718 18.2623 22.377 16.2953 22.869C15.8219 22.9902 15.8213 22.9902 16.039 23.4256C16.8524 25.0597 17.666 26.6946 18.4798 28.3303Z" fill="#D20F34"/>
<path d="M8.99347 16.9102C9.07448 15.7004 9.15125 14.49 9.23952 13.2808C9.24797 13.194 9.23854 13.1063 9.21185 13.0236C9.18517 12.9409 9.14184 12.865 9.08475 12.801C8.33089 11.8757 7.58428 10.9448 6.83586 10.0152C6.2555 9.2935 6.48765 8.55482 7.37148 8.31928C8.479 8.02657 9.58592 7.73386 10.6965 7.45372C10.8023 7.43168 10.9022 7.38592 10.9893 7.31964C11.0764 7.25336 11.1485 7.16814 11.2006 7.06993C11.7961 6.05425 12.4097 5.04925 13.0173 4.04236C13.5009 3.24213 14.2481 3.2459 14.733 4.04927C15.346 5.06621 15.9632 6.08063 16.5641 7.10511C16.6124 7.19373 16.6787 7.27036 16.7583 7.32969C16.838 7.38903 16.9291 7.42963 17.0254 7.44869C18.1547 7.73512 19.2821 8.03097 20.4108 8.32807C21.2572 8.5498 21.4857 9.29224 20.9241 9.99512C20.1793 10.9281 19.4305 11.8573 18.6776 12.7827C18.6165 12.849 18.5698 12.9282 18.5408 13.015C18.5118 13.1017 18.5012 13.1939 18.5095 13.2852C18.602 14.5044 18.6794 15.7255 18.7574 16.946C18.7979 17.5841 18.5065 18.0088 17.9818 18.0954C17.7635 18.1312 17.5646 18.0584 17.3688 17.9767C16.2806 17.5226 15.1924 17.0697 14.1109 16.6062C14.0356 16.57 13.9536 16.5513 13.8706 16.5513C13.7876 16.5513 13.7056 16.57 13.6303 16.6062C12.5645 17.0597 11.4769 17.4635 10.4317 17.9616C9.6772 18.3266 8.86289 17.8787 8.99347 16.9102ZM16.8344 15.7199C16.8344 15.5886 16.8398 15.4963 16.8344 15.4058C16.7836 14.6338 16.7467 13.86 16.673 13.0905C16.6288 12.6345 16.7171 12.2583 17.0157 11.9084C17.5423 11.2903 18.0386 10.6446 18.5513 10.0146C18.6607 9.87954 18.6982 9.81673 18.4793 9.76334C17.6789 9.56988 16.8845 9.34815 16.0859 9.14778C15.9238 9.11283 15.7706 9.04266 15.6364 8.94188C15.5022 8.8411 15.3901 8.71198 15.3073 8.56299C14.9192 7.89152 14.5141 7.23199 14.1115 6.57246C14.0384 6.45186 13.9906 6.31053 13.8528 6.20689C13.3818 6.9889 12.9085 7.75899 12.4527 8.541C12.3649 8.69877 12.2458 8.83531 12.1033 8.94155C11.9608 9.04779 11.7982 9.1213 11.6262 9.1572C10.8458 9.34563 10.0732 9.57176 9.29151 9.75769C9.0376 9.8205 9.08475 9.88331 9.21231 10.0403C9.74673 10.693 10.2703 11.355 10.8035 12.0083C11.0018 12.252 11.1057 12.5208 11.0828 12.8412C11.055 13.218 11.0223 13.5911 11.0005 13.9668C10.9637 14.5384 10.931 15.11 10.8972 15.6759C10.9981 15.7016 11.058 15.6602 11.1233 15.6326C11.8656 15.3185 12.6116 15.0164 13.351 14.6948C13.7053 14.5409 14.0408 14.5245 14.3938 14.6948C14.7021 14.8443 15.0226 14.9667 15.3381 15.0986C15.8284 15.3034 16.3193 15.5063 16.8344 15.7199Z" fill="#D20F34"/>
</svg>
