<svg width="40" height="40" viewBox="0 0 40 40" fill="none" xmlns="http://www.w3.org/2000/svg">
<path fill-rule="evenodd" clip-rule="evenodd" d="M22.8571 9.6C22.8571 12.1461 21.9541 14.5879 20.3466 16.3882C18.7392 18.1886 16.559 19.2 14.2857 19.2C12.0124 19.2 9.83225 18.1886 8.2248 16.3882C6.61734 14.5879 5.71429 12.1461 5.71429 9.6C5.71429 7.05392 6.61734 4.61212 8.2248 2.81178C9.83225 1.01143 12.0124 0 14.2857 0C16.559 0 18.7392 1.01143 20.3466 2.81178C21.9541 4.61212 22.8571 7.05392 22.8571 9.6ZM14.2857 22.4C10.4969 22.4 6.86328 24.0857 4.18419 27.0863C1.5051 30.0869 0 34.1565 0 38.4C0 38.8243 0.15051 39.2313 0.418419 39.5314C0.686328 39.8314 1.04969 40 1.42857 40H27.1429C27.5217 40 27.8851 39.8314 28.153 39.5314C28.4209 39.2313 28.5714 38.8243 28.5714 38.4C28.5714 34.1565 27.0663 30.0869 24.3872 27.0863C21.7081 24.0857 18.0745 22.4 14.2857 22.4ZM38.5714 40H31.9371C32.0714 39.4944 32.1429 38.9568 32.1429 38.4C32.1451 35.3001 31.5028 32.2421 30.267 29.4684C29.0312 26.6946 27.2358 24.2811 25.0229 22.4192C26.9548 22.3144 28.8856 22.65 30.6983 23.4058C32.511 24.1616 34.1678 25.3218 35.5682 26.816C36.9686 28.3103 38.0835 30.1075 38.8453 32.0987C39.6071 34.0899 39.9999 36.2337 40 38.4C40 38.8243 39.8495 39.2313 39.5816 39.5314C39.3137 39.8314 38.9503 40 38.5714 40ZM25.7143 19.2C24.8743 19.2014 24.0387 19.0644 23.2343 18.7936C25.2925 16.2874 26.4329 13.0052 26.4286 9.6C26.4329 6.19483 25.2925 2.91263 23.2343 0.4064C24.4127 0.00966498 25.6535 -0.0982559 26.8725 0.0899734C28.0914 0.278203 29.2599 0.75817 30.2985 1.49725C31.3371 2.23632 32.2214 3.21718 32.8914 4.37315C33.5613 5.52912 34.0012 6.83309 34.1811 8.19643C34.361 9.55976 34.2767 10.9505 33.934 12.2741C33.5912 13.5977 32.998 14.8231 32.1948 15.8671C31.3915 16.9111 30.3969 17.7491 29.2787 18.3242C28.1604 18.8993 26.9448 19.198 25.7143 19.2Z" fill="white"/>
</svg>
