<svg width="24" height="24" viewBox="0 0 24 24" fill="none" xmlns="http://www.w3.org/2000/svg">
<path d="M4.50007 4.71429C3.76125 4.71429 3.0527 5.00779 2.53027 5.53021C2.00785 6.05263 1.71436 6.76119 1.71436 7.50001V16.5C1.71436 17.2388 2.00785 17.9474 2.53027 18.4698C3.0527 18.9922 3.76125 19.2857 4.50007 19.2857H12.6429C13.3817 19.2857 14.0903 18.9922 14.6127 18.4698C15.1351 17.9474 15.4286 17.2388 15.4286 16.5V7.50001C15.4286 6.76119 15.1351 6.05263 14.6127 5.53021C14.0903 5.00779 13.3817 4.71429 12.6429 4.71429H4.50007ZM19.8198 17.694L16.7144 14.6512V9.42858L19.8104 6.31887C20.4849 5.64172 21.6412 6.11915 21.6412 7.07487V16.9286C21.6412 17.8783 20.4978 18.3583 19.8198 17.694Z" fill="white"/>
</svg>
