<svg width="24" height="24" viewBox="0 0 24 24" fill="none" xmlns="http://www.w3.org/2000/svg">
<path d="M13.5 4.07474C13.5 3.02624 12.1935 2.54774 11.5162 3.34724L8.45175 6.96974C8.31092 7.13592 8.13559 7.26944 7.93794 7.36101C7.7403 7.45258 7.52508 7.50001 7.30725 7.49999H4.5C3.70435 7.49999 2.94129 7.81606 2.37868 8.37867C1.81607 8.94128 1.5 9.70434 1.5 10.5V13.5C1.5 14.2956 1.81607 15.0587 2.37868 15.6213C2.94129 16.1839 3.70435 16.5 4.5 16.5H7.30725C7.52514 16.5001 7.74039 16.5476 7.93804 16.6393C8.13569 16.731 8.31099 16.8647 8.45175 17.031L11.5162 20.6527C12.1927 21.4522 13.5 20.9737 13.5 19.9252V4.07474ZM16.0747 6.88199C16.1559 6.82616 16.2473 6.78687 16.3437 6.76638C16.4401 6.74589 16.5396 6.74459 16.6365 6.76256C16.7334 6.78053 16.8257 6.81742 16.9084 6.87111C16.991 6.92481 17.0622 6.99425 17.118 7.07549C18.2167 8.67299 18.7965 10.3185 18.7965 12C18.7965 13.6815 18.2167 15.327 17.118 16.9252C17.0627 17.0075 16.9916 17.0779 16.9088 17.1326C16.8261 17.1872 16.7334 17.2248 16.636 17.2434C16.5386 17.2619 16.4385 17.261 16.3415 17.2406C16.2445 17.2202 16.1525 17.1808 16.0708 17.1246C15.9891 17.0685 15.9194 16.9967 15.8656 16.9134C15.8119 16.8301 15.7751 16.737 15.7576 16.6394C15.74 16.5419 15.742 16.4418 15.7633 16.345C15.7847 16.2482 15.825 16.1566 15.882 16.0755C16.8457 14.673 17.2972 13.3185 17.2972 12C17.2972 10.6815 16.8457 9.32699 15.882 7.92524C15.7695 7.76131 15.7267 7.55942 15.7629 7.36393C15.7992 7.16845 15.9116 6.99537 16.0755 6.88274M19.2682 3.95774C19.1969 3.88978 19.1129 3.83653 19.0211 3.80103C18.9292 3.76553 18.8312 3.74848 18.7327 3.75085C18.6342 3.75322 18.5372 3.77496 18.4471 3.81483C18.357 3.85471 18.2757 3.91193 18.2077 3.98324C18.1398 4.05455 18.0865 4.13854 18.051 4.23043C18.0155 4.32231 17.9985 4.42029 18.0009 4.51877C18.0032 4.61725 18.025 4.71429 18.0648 4.80437C18.1047 4.89444 18.1619 4.97578 18.2332 5.04374C20.0235 6.74849 20.9542 9.34799 20.9542 12.0007C20.9542 14.6542 20.0235 17.253 18.2332 18.9577C18.1619 19.0257 18.1047 19.107 18.0648 19.1971C18.025 19.2872 18.0032 19.3842 18.0009 19.4827C17.9985 19.5812 18.0155 19.6792 18.051 19.771C18.0865 19.8629 18.1398 19.9469 18.2077 20.0182C18.2757 20.0895 18.357 20.1468 18.4471 20.1866C18.5372 20.2265 18.6342 20.2483 18.7327 20.2506C18.8312 20.253 18.9292 20.2359 19.0211 20.2004C19.1129 20.1649 19.1969 20.1117 19.2682 20.0437C21.4155 17.9985 22.4535 14.973 22.4535 12.0007C22.4535 9.02849 21.4155 6.00224 19.2675 3.95699" fill="white"/>
</svg>
