<svg width="24" height="24" viewBox="0 0 24 24" fill="none" xmlns="http://www.w3.org/2000/svg">
<g clip-path="url(#clip0_244_4569)">
<path d="M16.5802 4.46002C17.7531 5.01251 18.78 5.83275 19.578 6.85467C20.376 7.8766 20.9228 9.07164 21.1745 10.3436C21.4261 11.6155 21.3756 12.9287 21.0269 14.1775C20.6782 15.4263 20.041 16.5758 19.1668 17.5334L20.1135 18.48C21.1386 17.3709 21.8881 16.0361 22.3015 14.5835C22.7148 13.1309 22.7804 11.6014 22.4928 10.1188C22.2052 8.63618 21.5726 7.24209 20.6462 6.04937C19.7198 4.85665 18.5255 3.8988 17.1602 3.25335C17.0018 3.18219 16.822 3.1756 16.6589 3.23497C16.4957 3.29435 16.3622 3.41502 16.2866 3.57132C16.2111 3.72762 16.1995 3.90722 16.2543 4.07193C16.3091 4.23665 16.426 4.37349 16.5802 4.45335V4.46002Z" fill="white"/>
<path d="M18.2002 18.4466L15.6402 15.8866L15.2602 15.5066L3.08683 3.33331L2.14016 4.27331L5.86683 7.99998H2.00016C1.82335 7.99998 1.65378 8.07022 1.52876 8.19524C1.40373 8.32027 1.3335 8.48983 1.3335 8.66665V15.3333C1.3335 15.5101 1.40373 15.6797 1.52876 15.8047C1.65378 15.9297 1.82335 16 2.00016 16H5.88683L12.2268 21.5333C12.3231 21.6179 12.4417 21.6729 12.5684 21.6918C12.6951 21.7107 12.8246 21.6928 12.9413 21.64C13.0581 21.5873 13.1572 21.502 13.2267 21.3944C13.2963 21.2868 13.3333 21.1614 13.3335 21.0333V15.4666L17.0602 19.1933C16.9468 19.26 16.8335 19.3266 16.7202 19.3866C16.6418 19.426 16.572 19.4805 16.5147 19.5469C16.4574 19.6133 16.4137 19.6903 16.3861 19.7735C16.3586 19.8568 16.3477 19.9447 16.3541 20.0321C16.3605 20.1196 16.3841 20.205 16.4235 20.2833C16.4629 20.3617 16.5173 20.4315 16.5837 20.4888C16.6501 20.5461 16.7271 20.5898 16.8104 20.6173C16.8937 20.6449 16.9815 20.6558 17.069 20.6494C17.1565 20.643 17.2418 20.6194 17.3202 20.58C17.5668 20.4533 17.8002 20.3133 18.0402 20.1666L19.4668 21.5933L20.4068 20.6666L18.2402 18.5L18.2002 18.4466Z" fill="white"/>
<path d="M15.1269 8.41333C15.7543 8.77946 16.2756 9.30279 16.6391 9.93174C17.0027 10.5607 17.1961 11.2735 17.2002 12C17.1974 12.9546 16.8628 13.8785 16.2535 14.6133L17.2002 15.56C18.0583 14.5723 18.5317 13.3084 18.5335 12C18.5292 11.0405 18.2748 10.0987 17.7955 9.2675C17.3162 8.43629 16.6285 7.74438 15.8002 7.26C15.7243 7.21177 15.6395 7.17938 15.5507 7.16478C15.462 7.15019 15.3713 7.1537 15.2839 7.17509C15.1966 7.19648 15.1145 7.23531 15.0426 7.28926C14.9706 7.3432 14.9104 7.41114 14.8654 7.48898C14.8204 7.56683 14.7916 7.65297 14.7807 7.74222C14.7699 7.83148 14.7772 7.92201 14.8023 8.00836C14.8273 8.09471 14.8696 8.1751 14.9265 8.2447C14.9834 8.3143 15.0539 8.37166 15.1335 8.41333H15.1269Z" fill="white"/>
<path d="M13.3334 3.08001C13.3333 2.95189 13.2962 2.82653 13.2267 2.71894C13.1571 2.61134 13.058 2.52607 12.9413 2.47332C12.8245 2.42056 12.695 2.40257 12.5683 2.4215C12.4416 2.44042 12.323 2.49545 12.2268 2.58001L7.94678 6.31334L13.3334 11.6933V3.08001Z" fill="white"/>
</g>
<defs>
<clipPath id="clip0_244_4569">
<rect width="24" height="24" fill="white"/>
</clipPath>
</defs>
</svg>
